<svg width="27" height="21" viewBox="0 0 27 21" fill="none" xmlns="http://www.w3.org/2000/svg">
<path d="M25.6036 9.12652L17.7526 1.05748C17.0294 0.314168 15.8236 0.314168 15.1004 1.05748C14.3772 1.8008 14.3772 3.04003 15.1004 3.78335L19.7361 8.57559L2.58768 8.57559C1.54313 8.57559 0.712077 9.42972 0.712077 10.5033C0.712077 11.5768 1.54313 12.431 2.58768 12.431L19.7361 12.431L15.1004 17.1954C14.3772 17.9387 14.3772 19.1779 15.1004 19.9213C15.4751 20.3063 15.9576 20.5 16.4401 20.5C16.9226 20.5 17.4051 20.3074 17.7798 19.9213L25.6035 11.8803C25.9521 11.5221 26.1666 11.0262 26.1666 10.5034C26.1666 9.9806 25.9794 9.48474 25.6036 9.12652Z" fill="#0473BD"/>
</svg>
