<svg width="715" height="480" viewBox="0 0 715 480" fill="none" xmlns="http://www.w3.org/2000/svg">
<path d="M66.5991 213.814C56.7762 153.928 17.4673 153.566 17.4673 92.88C17.4673 42.4017 45.0621 -2.80135e-05 152.076 -1.86581e-05C251.364 -9.97805e-06 262.734 27.7774 353.316 68.4367C452.919 113.146 543.755 -18.7835 640.706 31.4193C784.609 105.935 697.404 374.091 557.248 455.437C431.908 528.183 382.461 410.923 237.552 408.997C141.417 407.719 63.9072 455.437 17.4672 408.997C-44.8954 346.634 80.8745 300.845 66.5991 213.814Z" fill="url(#paint0_radial_14_61)"/>
<path d="M66.5993 213.814C56.7763 153.928 17.4674 153.566 17.4674 92.88C17.4674 42.4017 45.0622 -2.80135e-05 152.076 -1.86581e-05C251.364 -9.97805e-06 262.735 27.7774 353.316 68.4367C452.919 113.146 543.755 -18.7835 640.706 31.4193C784.609 105.935 697.404 374.091 557.248 455.437C431.908 528.183 382.461 410.923 237.553 408.997C141.417 407.719 63.9074 455.437 17.4674 408.997C-44.8953 346.634 80.8746 300.845 66.5993 213.814Z" fill="#A1D6E7" fill-opacity="0.23"/>
<path fill-rule="evenodd" clip-rule="evenodd" d="M350.931 294.431C348.714 305.673 346.145 318.699 344.256 327.377C346.476 330.231 348.666 333.72 350.448 337.328C354.193 344.905 355.607 351.884 354.43 356.975C353.825 359.601 352.463 361.823 350.385 363.578C348.704 364.999 346.545 366.095 344.142 366.751C342.504 367.198 340.846 367.417 339.413 367.417C337.629 367.417 336.191 367.078 335.564 366.418C335.136 365.967 334.772 365.023 335.016 361.203C335.16 358.935 335.516 355.852 336.045 352.283C336.191 351.3 336.346 350.313 336.503 349.339C332.586 349.811 317.847 351.476 304.727 351.476C299.996 351.476 295.477 351.26 291.75 350.693C278.436 348.668 249.333 332.35 239.77 326.987C238.831 326.46 238.089 326.044 237.558 325.752C234.914 324.293 221.173 316.03 206.502 307.208L205.963 306.884L205.765 306.765C187.134 295.561 166.1 282.912 162.631 281.086C156.485 277.852 34.2338 245.298 33 244.97L33.3841 243.524C38.4299 244.867 157.033 276.45 163.329 279.76C166.849 281.613 188.04 294.357 206.736 305.601L207.273 305.924C221.932 314.74 235.662 322.997 238.283 324.441C238.819 324.737 239.562 325.153 240.503 325.681C250.008 331.011 278.933 347.23 291.977 349.213C306.295 351.39 332.632 348.308 336.759 347.8C337.171 345.363 337.602 343.05 337.997 341.089C337.799 341.189 337.599 341.284 337.393 341.369C336.243 341.844 335.029 342.082 333.683 342.082C332.338 342.082 330.993 341.82 329.801 341.297C328.28 340.631 327.641 337.798 327.664 331.822C327.681 327.258 328.113 321.761 328.429 317.743L328.431 317.725C328.443 317.563 328.456 317.401 328.468 317.242C324.377 315.019 319.636 312.618 314.762 310.151L314.728 310.133C310.224 307.853 305.568 305.495 301.149 303.139C299.241 302.121 295.678 297.688 290.747 291.551L290.737 291.538C285.896 285.515 280.029 278.214 273.837 271.808C262.471 266.506 257.672 265.666 252.142 265.061C248.395 264.651 245.392 264.705 243.197 264.745L243.18 264.746C240.41 264.796 239.02 264.822 238.552 263.816C238.109 262.866 238.877 261.738 240.77 259.567C243.394 256.555 246.577 255.068 250.231 255.138C257.799 255.289 266.528 262.124 274.723 270.57C280.408 273.161 287.478 271.96 296.33 266.901C304.09 262.468 311.941 255.755 318.251 250.36L318.259 250.353C322.317 246.882 325.822 243.887 328.574 242.074C330.015 241.126 331.346 240.092 332.558 239.028C332.642 238.852 332.724 238.677 332.803 238.501C334.952 233.731 336.838 230.735 339.111 228.484C339.371 228.227 339.64 227.977 339.915 227.734C338.546 227.412 334.369 225.926 330.878 224.572C327.001 223.069 322.161 221.047 321.12 219.952C320.54 219.341 320.348 218.535 320.565 217.624C321.114 215.333 324.244 212.637 327.847 211.355C332.645 209.648 344.99 212.797 354.005 215.096L354.006 215.097C358.116 216.145 361.666 217.051 363.127 217.133C373.524 217.726 386.331 215.225 401.195 209.703C408.269 207.075 411.815 200.412 413.301 196.673C415.225 191.83 415.573 187.315 414.798 185.747C413.259 182.631 408.589 183.677 404.074 184.689L404.07 184.69L403.619 184.79C398.494 185.935 391.766 186.491 379.623 186.775C379.38 186.78 379.138 186.783 378.894 186.783C370.44 186.783 361.247 183.432 353.818 180.725L353.814 180.724C349.904 179.298 346.525 178.067 343.968 177.568C341.374 177.062 318.337 172.642 308.668 173.208C299.606 173.739 293.615 177.572 286.678 182.011C283.801 183.853 280.826 185.756 277.396 187.587C266.967 193.155 257.502 195.577 248.349 197.92L248.338 197.923L248.009 198.007C245.913 198.544 243.921 199.055 241.921 199.606L241.917 199.607C237.115 200.929 222.512 204.946 208.655 199.238C195.793 193.939 38.7425 116.17 33.1677 113.41C33.0956 113.374 33.0488 113.351 33.028 113.34L33.6909 112C33.7116 112.01 33.7583 112.033 33.8302 112.069C39.3971 114.826 196.41 192.576 209.225 197.855C222.61 203.369 236.841 199.453 241.522 198.165L241.525 198.164C243.63 197.585 245.718 197.051 247.927 196.485L247.969 196.474L247.986 196.47C257.051 194.149 266.424 191.749 276.692 186.268C280.07 184.465 283.019 182.578 285.872 180.752L285.874 180.751C292.986 176.199 299.129 172.267 308.581 171.715C318.434 171.139 341.641 175.591 344.255 176.101C346.925 176.622 350.349 177.869 354.315 179.315L354.326 179.319L354.337 179.323C361.86 182.065 371.221 185.476 379.587 185.28C391.625 184.998 398.27 184.452 403.293 183.33L403.741 183.23L403.751 183.227C406.125 182.696 408.578 182.147 410.752 182.185C413.437 182.233 415.198 183.182 416.138 185.084C417.221 187.278 416.613 192.385 414.69 197.225C413.405 200.46 410.656 205.76 405.561 209.143H405.567C410.207 208.433 415.451 208.506 421.005 208.585L421.351 208.59C422.313 208.603 423.302 208.617 424.288 208.625C440.899 208.773 453.666 208.469 466.98 207.611C476.241 207.014 488.136 204.82 496.82 203.218L496.821 203.218C501.281 202.395 504.805 201.745 506.8 201.524C508.353 201.352 511.779 201.397 516.965 201.467C526.329 201.592 540.482 201.781 556.657 200.844C606.268 197.97 679.821 191.375 680.557 191.309L680.69 192.798C679.953 192.865 606.376 199.462 556.743 202.338C540.514 203.278 526.33 203.089 516.944 202.963C511.998 202.897 508.423 202.85 506.964 203.011C505.021 203.226 501.521 203.872 497.091 204.689L497.086 204.69C488.366 206.299 476.425 208.501 467.076 209.104C453.725 209.964 440.923 210.268 424.274 210.12C423.293 210.112 422.312 210.099 421.355 210.085L420.984 210.08L420.978 210.08C409.967 209.926 400.457 209.792 394.692 215.597C391.099 219.215 386.401 227.426 382.257 234.67L382.243 234.695C378.86 240.608 375.939 245.712 374.093 247.517C373.506 248.089 372.682 248.931 371.694 249.966C368.782 254.4 365.713 258.797 363.044 262.623L363.029 262.644C358.811 268.69 355.168 273.912 354.765 275.52C354.262 277.536 352.718 285.365 350.931 294.431ZM245.562 263.221C247.439 263.221 249.689 263.288 252.303 263.573V263.575C257.346 264.126 261.792 264.866 270.846 268.815C266.995 265.095 263.41 262.196 260.19 260.196C256.479 257.891 253.118 256.694 250.201 256.635C246.968 256.571 244.25 257.851 241.898 260.55C240.518 262.133 240.064 262.84 239.958 263.149C240.439 263.299 241.873 263.273 243.152 263.249C243.87 263.236 244.674 263.221 245.562 263.221ZM361.798 261.794L361.802 261.787L361.801 261.786C362.787 260.375 363.832 258.876 364.906 257.323C358.873 264.06 352.274 271.96 351.629 274.505C351.565 274.781 351.049 277.91 350.39 281.907L350.352 282.14L350.351 282.142C348.531 293.189 345.291 312.845 342.864 325.673C342.925 325.744 342.985 325.815 343.047 325.887C344.933 317.106 347.426 304.466 349.451 294.195L349.462 294.14L349.523 293.829C351.36 284.516 352.806 277.185 353.314 275.156C353.782 273.281 357.144 268.463 361.798 261.794ZM329.423 247.016C326.836 250.82 324.392 254.414 324.553 257.479L324.552 257.478C324.635 259.053 324.389 262.197 324.105 265.837C323.749 270.39 323.308 276.058 323.369 280.527C323.461 287.216 324.648 287.951 325.01 288.016C329.439 288.822 331.545 285.641 332.886 282.78C332.903 282.743 332.92 282.707 332.936 282.672C333.833 276.511 334.606 270.733 334.937 266.788C335.289 262.602 336.374 259.175 338.352 256C340.13 253.147 342.486 250.738 344.982 248.189L344.983 248.188C346.826 246.305 348.733 244.357 350.684 241.987C355.654 235.952 367.964 226.365 375.846 220.484C373.922 219.774 372.019 219.45 369.966 219.45C365.101 219.45 359.384 221.27 350.504 224.096L349.201 224.511C346.157 225.478 343.791 226.579 341.793 228.112C341.763 229.594 340.69 231.897 338.801 234.47C337.389 236.395 335.669 238.261 333.766 239.956C332.566 242.39 330.982 244.722 329.443 246.986L329.424 247.013L329.423 247.016ZM380.187 217.287C377.896 217.72 375.674 218.055 373.525 218.291H373.524C374.773 218.531 376.005 218.909 377.256 219.438C378.368 218.615 379.358 217.891 380.187 217.287ZM346.05 249.24C341.077 254.322 337.15 258.335 336.43 266.915H336.428C335.892 273.31 334.209 284.421 332.721 294.243L332.708 294.324C331.401 302.944 330.273 310.391 330.273 312.313C330.273 313.125 330.173 314.562 330.031 316.394C334.017 318.587 337.345 320.61 339.527 322.367C340.198 322.906 340.894 323.553 341.602 324.288C343.995 311.502 347.107 292.629 348.875 281.896C349.73 276.714 350.11 274.412 350.18 274.138C350.702 272.07 354.209 267.291 360.599 259.935C364.122 255.881 367.883 251.796 370.497 249.054C376.873 239.33 382.556 229.332 381.672 224.731C381.514 223.913 381.15 223.328 380.559 222.938C379.49 222.234 378.463 221.646 377.453 221.165C369.662 226.965 356.798 236.918 351.839 242.941C349.846 245.362 347.918 247.332 346.052 249.238L346.05 249.24ZM342.64 327.758C342.593 327.699 342.546 327.638 342.5 327.581C341.998 330.171 341.539 332.412 341.146 334.152C341.546 332.621 342.057 330.418 342.64 327.758ZM380.966 233.912C385.155 226.59 389.9 218.297 393.631 214.541L393.629 214.539C393.984 214.183 394.354 213.843 394.738 213.522C390.91 214.75 387.231 215.761 383.707 216.555L383.726 216.58L383.725 216.581C383.641 216.64 381.707 218.017 378.8 220.165C379.643 220.601 380.499 221.107 381.382 221.687C382.316 222.302 382.908 223.23 383.142 224.448C383.558 226.609 382.823 229.767 380.909 234.013C380.917 233.998 380.925 233.984 380.934 233.969C380.942 233.955 380.95 233.941 380.958 233.926L380.966 233.912ZM331.379 223.158C336.021 224.961 339.875 226.246 340.387 226.305V226.303C340.728 226.337 341.022 226.461 341.251 226.661C343.255 225.207 345.662 224.065 348.747 223.085L350.05 222.67C355.692 220.875 360.14 219.46 363.956 218.666C363.65 218.654 363.344 218.641 363.041 218.623C361.444 218.533 358.026 217.662 353.696 216.558L353.635 216.543C345.306 214.418 332.716 211.207 328.348 212.761C324.916 213.982 322.393 216.415 322.021 217.968C321.891 218.509 322.063 218.769 322.205 218.917C322.7 219.438 325.37 220.827 331.379 223.158ZM339.783 229.931C339.081 231.541 337.693 233.664 335.736 235.867C337.026 233.407 338.316 231.484 339.783 229.931ZM315.401 308.797L315.436 308.814H315.433L315.559 308.878C320.164 311.21 324.649 313.481 328.59 315.609C328.702 314.131 328.776 312.977 328.776 312.311C328.776 310.28 329.909 302.804 331.221 294.143L331.228 294.099C331.601 291.639 331.987 289.097 332.363 286.569C330.868 288.433 328.47 290.168 324.743 289.489C322.838 289.142 321.954 286.385 321.873 280.549C321.81 276.017 322.254 270.324 322.611 265.743L322.613 265.721C322.893 262.133 323.134 259.035 323.057 257.557C322.869 253.987 325.45 250.191 328.184 246.172L328.185 246.17L328.223 246.115C329.036 244.918 329.863 243.701 330.633 242.466C330.225 242.76 329.811 243.046 329.394 243.321C326.721 245.083 323.249 248.051 319.229 251.488C312.87 256.926 304.955 263.693 297.069 268.199C290.999 271.667 285.688 273.393 281.021 273.393C279.606 273.393 278.25 273.234 276.949 272.917C282.429 278.814 287.592 285.238 291.909 290.61L291.91 290.612L291.913 290.616C296.367 296.157 300.213 300.944 301.851 301.817C306.254 304.167 310.903 306.52 315.401 308.797ZM330.4 339.928C332.335 340.776 334.854 340.8 336.818 339.988H336.819C337.406 339.745 337.941 339.43 338.421 339.053C338.684 337.843 338.918 336.861 339.104 336.197C339.633 334.299 340.388 330.69 341.259 326.12C340.338 325.092 339.436 324.213 338.592 323.533C336.588 321.921 333.555 320.058 329.906 318.032C329.593 322.011 329.176 327.383 329.159 331.827C329.131 339.007 330.187 339.834 330.4 339.928ZM343.747 365.308C346.625 364.523 351.651 362.351 352.971 356.637H352.97C354.069 351.882 352.697 345.259 349.105 337.99C347.589 334.922 345.733 331.892 343.829 329.307C343.005 333.001 342.344 335.659 341.949 336.67C341.453 337.939 340.715 339.015 339.773 339.869C339.097 343.054 338.248 347.66 337.562 352.247C335.865 363.588 336.551 365.222 336.658 365.398C337.183 365.913 340.236 366.266 343.747 365.308ZM539.221 276.084C553.563 278.368 573.203 281.334 597.593 284.899V284.889C639.124 290.959 680.586 296.739 681 296.797L680.793 298.279L680.502 298.238C676.656 297.701 635.817 291.996 595.479 286.092C570.71 282.467 550.974 279.476 536.818 277.205C528.41 275.855 521.9 274.748 517.47 273.912C515.326 273.506 513.628 273.158 512.414 272.873C508.862 275.674 505.875 280.136 503.14 284.222L503.138 284.226L503.135 284.229C500.931 287.521 498.85 290.63 496.745 292.403C494.288 294.473 490.482 297.798 486.077 301.65L485.951 301.761C480.117 306.859 473.524 312.622 467.86 317.392C458.138 325.579 440.484 344.668 434.494 351.918C431.918 355.035 425.439 362.031 419.171 362.031C418.879 362.031 418.587 362.017 418.296 361.985C415.382 361.668 413.004 359.756 411.23 356.3C407.985 349.982 408.824 342.863 410.099 338.006C411.671 332.013 414.504 326.978 416.453 324.488C417.8 322.766 420.828 319.062 424.344 314.88C420.597 315.835 414.528 316.452 408.32 316.849C411.33 317.94 413.063 319.594 413.488 321.796C414.131 325.124 413.44 328.402 411.491 331.278C408.625 335.51 403.108 338.766 396.736 339.985C388.01 341.655 379.699 342.742 378.551 342.889C376.189 349.775 374.13 354.227 372.414 356.156C369.813 359.08 365.305 362.127 361.72 362.298C361.61 362.303 361.503 362.306 361.398 362.306C360.106 362.306 359.033 361.919 358.208 361.152C355.972 359.078 355.36 354.151 355.951 342.975C357.147 320.32 362.261 298.581 365.01 286.903C365.552 284.603 365.978 282.787 366.262 281.444C367.055 277.69 367.863 274.293 369.728 270.727C371.567 267.212 374.349 263.587 379.034 258.606C383.391 253.973 387.889 247.556 391.858 241.894L391.865 241.885C397.335 234.081 400.54 229.632 402.815 228.948C403.799 228.652 404.258 228.984 404.469 229.315C405.301 230.621 403.266 233.362 392.366 245.611L392.305 245.68C389.245 249.12 386.359 252.364 384.422 254.762L384.349 254.702C382.944 256.468 381.529 258.138 380.125 259.632C370.585 269.775 369.372 273.968 367.728 281.754C367.447 283.082 367.031 284.85 366.507 287.079L366.468 287.247C363.73 298.88 358.635 320.534 357.446 343.057C356.905 353.312 357.438 358.397 359.227 360.057C359.815 360.603 360.63 360.855 361.65 360.805C364.79 360.656 368.965 357.787 371.299 355.163C375.607 350.323 382.212 326.434 383.997 318.171C384.925 313.869 388.784 304.659 391.885 297.26C393.629 293.098 395.135 289.505 395.745 287.684C396.736 284.727 400.383 282.187 404.607 279.245L404.608 279.244C408.157 276.773 411.827 274.216 414.167 271.205C421.766 261.429 427.729 257.306 432.403 258.6C433.932 259.024 436.405 259.237 439.268 259.484C446.289 260.09 455.895 260.919 461.434 265.726C462.952 266.628 464.422 267.787 465.645 269.079C468.379 271.97 469.665 275.273 469.266 278.382C468.586 283.679 466.344 287.559 462.411 290.241C458.776 292.722 454.247 293.736 450.674 294.336C449.847 294.821 449.018 295.243 448.231 295.603C446.085 296.585 443.836 297.317 441.79 297.814C440.415 298.895 437.542 301.959 434.21 305.716C432.713 309.256 430.236 312.118 427.265 313.741C423.179 318.556 419.41 323.142 417.632 325.416C413.739 330.392 407.058 344.907 412.56 355.624C414.09 358.603 416.074 360.245 418.456 360.504C418.692 360.531 418.931 360.543 419.171 360.543C424.968 360.543 431.436 353.278 433.339 350.973C439.358 343.686 457.111 324.494 466.896 316.254C472.591 311.458 479.233 305.652 485.093 300.53C489.503 296.674 493.314 293.344 495.782 291.266C497.723 289.631 499.745 286.609 501.886 283.41L501.893 283.4C504.481 279.534 507.284 275.344 510.64 272.406C509.864 272.144 509.528 271.868 509.528 271.367C509.528 270.706 510.157 270.248 511.102 269.761C514.99 267.759 526.663 264.407 537.123 262.289C546.866 260.316 559.322 258.566 563.333 261.426C565.646 263.077 568.133 264.682 570.537 266.236L570.581 266.264L570.584 266.266C577.697 270.86 583.84 274.827 584.376 278.899C584.411 279.169 584.316 279.433 584.116 279.623C583.382 280.318 581.412 280.123 562.196 276.48L562.192 276.48C545.721 273.359 523.167 269.085 517.584 270.294C516.354 270.561 515.188 271.056 514.076 271.726C517.661 272.484 524.889 273.801 539.221 276.084ZM534.871 264.291C529.289 265.499 523.399 267.037 518.715 268.51L518.716 268.511C518.517 268.574 518.324 268.635 518.135 268.695C518.736 268.627 519.443 268.595 520.242 268.595C528.623 268.595 547.18 272.112 562.473 275.01L562.475 275.011L562.77 275.066C568.002 276.058 572.932 276.992 576.607 277.614C580.304 278.241 581.985 278.422 582.741 278.448C581.669 275.205 575.878 271.465 569.77 267.521C567.336 265.95 564.82 264.324 562.465 262.645C559.546 260.564 549.232 261.181 534.871 264.291ZM399.417 235.245C401.627 232.571 402.53 231.214 402.896 230.535C401.001 231.556 397.507 236.448 393.748 241.806C395.809 239.478 397.797 237.204 399.417 235.245ZM435.301 302.261C436.686 300.741 437.94 299.408 438.973 298.38C438.129 298.508 437.363 298.585 436.709 298.611C436.447 298.62 436.11 298.615 435.708 298.595C435.708 299.773 435.573 301.002 435.301 302.261ZM453.058 263.132C449.863 262.545 445.668 261.849 441.611 261.201C445.271 261.543 449.364 262.042 453.058 263.132ZM457.314 265.542C452.907 264.348 430.054 260.916 427.713 260.567L427.714 260.564C424.945 261.774 421.687 264.562 417.967 268.906C420.421 268.508 424.269 268.143 427.71 267.944C431.889 267.704 439.552 267.46 443.914 268.534C451.613 270.428 458.948 278.547 457.242 286.576C456.756 288.858 455.362 290.728 453.639 292.231C460.591 290.619 466.606 287.336 467.779 278.197C468.523 272.406 462.077 266.833 457.314 265.542ZM405.465 280.473L405.46 280.477L405.459 280.479C401.619 283.153 397.992 285.68 397.158 288.167C397.05 288.489 396.917 288.862 396.76 289.281C397.563 289.013 398.794 288.677 400.692 288.267C402.654 287.843 406.668 287.068 411.526 286.632C418.562 286 427.856 286.045 432.169 289.845C434.152 291.592 435.338 294.139 435.634 297.094C436.057 297.118 436.399 297.126 436.651 297.116C441.478 296.927 454.255 293.425 455.777 286.268C456.484 282.944 455.461 279.343 452.898 276.126C450.515 273.135 447.024 270.841 443.556 269.988C436.52 268.256 418.663 269.96 416.44 270.746C416.078 271.193 415.714 271.653 415.345 272.128C412.866 275.317 409.103 277.939 405.465 280.473ZM415.395 294.22C423.322 295.591 430.309 296.611 434.118 296.974V296.976C434.118 296.975 434.118 296.975 434.118 296.974C433.819 294.51 432.817 292.408 431.181 290.968C428.125 288.275 421.187 287.266 411.646 288.123C405.485 288.677 400.006 289.848 397.571 290.585C400.118 291.326 406.274 292.642 415.395 294.22ZM412.018 322.089C411.794 320.929 411.054 319.978 409.756 319.182H409.757C408.027 318.121 405.559 317.497 402.866 317.154C394.061 317.557 386.303 317.577 386.156 317.577C385.968 317.577 385.821 317.539 385.706 317.48C385.608 317.843 385.524 318.183 385.457 318.494C384.776 321.648 382.757 329.656 380.242 337.715C379.848 338.977 379.462 340.177 379.083 341.319C381.52 340.995 388.826 339.984 396.453 338.524C402.444 337.377 407.603 334.359 410.252 330.448C411.998 327.871 412.592 325.06 412.018 322.089ZM402.943 315.657C410.811 315.295 419.465 314.628 424.145 313.396L424.144 313.398C424.889 313.201 425.615 312.918 426.312 312.558C428.508 309.972 430.799 307.312 432.928 304.909C433.264 304.077 433.544 303.204 433.759 302.3C434.071 300.982 434.219 299.7 434.211 298.485C429.796 298.083 421.524 296.809 414.479 295.58C409.499 294.712 404.925 293.833 401.6 293.106C398.168 292.357 396.608 291.898 395.862 291.57C395.169 293.285 394.302 295.357 393.362 297.6L393.26 297.844L393.224 297.93C390.67 304.028 387.608 311.34 386.136 316.015C386.152 316.012 386.167 316.009 386.182 316.007C386.214 316 386.243 315.995 386.271 315.99C386.529 315.945 386.888 315.891 387.307 315.838C390.751 315.398 396.553 315.047 401.576 315.509C402.045 315.551 402.502 315.601 402.943 315.657ZM511.662 271.159C511.782 271.192 511.917 271.228 512.066 271.265C512.53 270.927 513.004 270.614 513.489 270.332C512.617 270.684 512.041 270.956 511.662 271.159Z" fill="#202020"/>
<defs>
<radialGradient id="paint0_radial_14_61" cx="0" cy="0" r="1" gradientUnits="userSpaceOnUse" gradientTransform="translate(369 225) rotate(-94.8268) scale(225.801 342.686)">
<stop offset="0.145833" stop-color="#93A2E4"/>
<stop offset="0.578125" stop-color="#93A2E4" stop-opacity="0.521739"/>
<stop offset="0.979167" stop-color="#93A2E4" stop-opacity="0"/>
</radialGradient>
</defs>
</svg>
