<svg width="32" height="32" viewBox="0 0 32 32" fill="none" xmlns="http://www.w3.org/2000/svg">
<circle cx="16" cy="16" r="16" fill="#BAD9ED"/>
<path d="M15.6503 23.7535C15.7345 23.8463 15.8153 23.9071 15.8934 23.9492C15.8947 23.9505 15.8967 23.9505 15.8974 23.9512C15.9515 23.9792 16.0042 23.9999 16.0543 23.9999C16.1044 23.9999 16.1571 23.9785 16.2119 23.9512C16.2126 23.9505 16.2152 23.9505 16.2159 23.9492C16.294 23.9071 16.3755 23.847 16.4596 23.7535C16.4596 23.7535 21.115 18.6908 21.5831 14.3039C21.6111 14.0775 21.6298 13.8478 21.6298 13.6148C21.6298 10.5139 19.1158 7.9999 16.0149 7.9999C12.914 7.9999 10.4 10.5139 10.4 13.6148C10.4 13.8518 10.4194 14.0835 10.4481 14.3132C10.9282 18.6982 15.6503 23.7535 15.6503 23.7535ZM16.0149 10.0031C18.0061 10.0031 19.6266 11.6236 19.6266 13.6148C19.6266 15.6059 18.0061 17.2265 16.0149 17.2265C14.0238 17.2265 12.4032 15.6059 12.4032 13.6148C12.4032 11.6236 14.0238 10.0031 16.0149 10.0031Z" fill="#005186"/>
</svg>
