<svg width="46" height="30" viewBox="0 0 46 30" fill="none" xmlns="http://www.w3.org/2000/svg">
<path d="M26.3976 20.2865C26.4786 22.2534 27.1063 24.1532 28.2041 25.7546C29.3019 27.3559 30.8224 28.5896 32.5804 29.3054C34.3385 30.0212 36.2581 30.1881 38.1055 29.7859C39.9529 29.3837 41.6482 28.4296 42.985 27.04C44.3218 25.6503 45.2424 23.8851 45.6345 21.9594C46.0266 20.0336 45.8734 18.0304 45.1935 16.1939C44.5136 14.3574 43.3363 12.7668 41.8052 11.6159C40.2741 10.465 38.4551 9.80353 36.57 9.71201C36.57 6.88715 40.5 2.54987 42.0576 1.08744C42.1548 0.997156 42.2205 0.87572 42.2444 0.742227C42.2683 0.608734 42.2489 0.470755 42.1894 0.349982C42.14 0.244798 42.0633 0.156215 41.9679 0.0943339C41.8726 0.032453 41.7625 -0.000233157 41.6502 1.25199e-06H41.5304C38.5125 0.680768 35.659 1.99485 33.1432 3.8623C29.5487 6.58717 25.9542 11.6369 26.3976 20.2865Z" fill="#007F66"/>
<path d="M0.0372021 20.2865C0.118263 22.2534 0.745924 24.1532 1.84372 25.7546C2.94152 27.3559 4.46206 28.5896 6.2201 29.3054C7.97813 30.0212 9.89777 30.1881 11.7451 29.7859C13.5925 29.3837 15.2879 28.4296 16.6247 27.04C17.9615 25.6503 18.882 23.8851 19.2741 21.9594C19.6663 20.0336 19.513 18.0304 18.8331 16.1939C18.1532 14.3574 16.976 12.7668 15.4449 11.6159C13.9137 10.465 12.0948 9.80353 10.2096 9.71201C10.2096 6.88715 14.1396 2.54987 15.6973 1.08744C15.7945 0.997156 15.8602 0.87572 15.884 0.742227C15.9079 0.608734 15.8886 0.470755 15.8291 0.349982C15.7796 0.244798 15.7029 0.156215 15.6076 0.0943339C15.5122 0.032453 15.4022 -0.000233157 15.2899 1.25199e-06H15.1701C12.1522 0.680768 9.29861 1.99485 6.78289 3.8623C3.18838 6.58717 -0.40612 11.6369 0.0372021 20.2865Z" fill="#007F66"/>
</svg>
