<svg width="178" height="178" viewBox="0 0 178 178" fill="none" xmlns="http://www.w3.org/2000/svg">
<circle cx="89.3333" cy="89" r="88.5" fill="#F1F7FB"/>
<path d="M59.6039 158.489C57.1306 158.489 54.1944 157.436 53.8834 156.945C53.7348 156.711 53.2815 155.995 50.2626 138.255C48.5422 128.145 46.3219 114.464 44.0117 99.7304C41.7891 85.5581 39.6621 71.5376 38.1747 61.2642C35.617 43.5931 35.797 42.9648 35.8645 42.7277C36.0894 41.941 37.2128 40.7791 44.342 39.7811C48.1613 39.2467 51.9404 39.0193 51.9782 39.0177C52.1799 39.0064 52.3583 39.1447 52.396 39.3431L53.6793 46.0167C53.7018 46.1332 53.6713 46.2537 53.5965 46.3461C53.5218 46.4385 53.4093 46.4924 53.2912 46.494C50.3309 46.5382 45.512 47.7242 44.1925 48.0625C44.972 53.6898 54.7111 123.789 59.4159 147.177C71.0988 145.168 95.7383 140.402 98.5764 139.853L99.8798 133.147C99.0345 133.694 98.1811 133.868 97.4458 133.623C96.7355 133.386 95.817 132.643 95.4803 130.45C95.4715 130.393 95.4755 130.336 95.4908 130.28L99.6219 115.722C99.6733 115.54 99.8453 115.418 100.033 115.431L102.019 115.554C101.493 115.344 100.875 115.096 100.159 114.805C99.9578 114.724 99.8573 114.497 99.9328 114.294C101.868 109.031 103.381 103.416 104.716 98.4624C105.788 94.4848 106.799 90.7282 107.874 87.7197C107.927 87.5726 108.059 87.4698 108.214 87.4545C108.67 87.4111 109.17 87.3974 109.657 87.4015C109.317 87.2432 108.954 87.0624 108.578 86.8591C108.476 86.8036 108.403 86.7072 108.378 86.5939C108.353 86.4806 108.378 86.3617 108.447 86.2684C109.302 85.1041 110.191 83.4616 111.051 81.873C111.924 80.2611 112.825 78.5937 113.714 77.3843C113.805 77.2598 113.961 77.1987 114.113 77.2276C114.265 77.2566 114.387 77.3707 114.427 77.5201C115.561 81.8433 114.382 88.3039 114.331 88.5771C114.329 88.5883 114.326 88.5988 114.324 88.6092L100.021 140.988C112.649 138.446 122.294 136.826 133.564 136.112C130.768 102.903 125.962 70.35 118.876 36.6223C115.63 37.679 109.098 37.695 108.809 37.695C108.594 37.695 108.418 37.5271 108.407 37.3125C108.405 37.2555 108.16 32.721 106.322 30.0709C106.414 30.537 106.58 31.1493 106.735 31.719C107.233 33.5535 107.986 36.3258 108.279 39.9956C108.295 40.2062 108.146 40.3942 107.937 40.4247L55.9421 48.1204C55.7734 48.1453 55.6062 48.0601 55.5267 47.9082C53.6086 44.2207 52.6001 38.4568 54.1197 36.2623C55.955 33.6122 60.0756 33.1381 63.7109 32.7186C65.3855 32.5258 66.9758 32.3425 68.161 31.9673C67.7424 28.8945 67.5198 25.4778 69.4258 23.0631C70.9477 21.1345 73.6718 20.0096 77.7547 19.623C82.3607 19.1867 85.4086 19.9043 87.3475 21.8802C89.0888 23.6545 89.7172 26.2259 90.3826 28.9475L90.3962 29.0038C90.3986 29.011 90.5441 29.1645 91.4834 29.0174C92.193 28.9065 93.1139 28.6687 94.1802 28.3939C97.4233 27.5574 101.865 26.4107 104.876 27.7695C105.332 27.9752 105.739 28.2565 106.105 28.5948C106.449 28.4887 107.04 28.3866 108.1 28.2846C110.372 28.0668 114.154 27.9254 117.736 27.9246H117.758C123.97 27.9246 124.332 28.3071 124.486 28.4702C124.662 28.655 124.987 28.9998 126.985 39.6469C128.141 45.811 129.443 53.2286 130 56.3962C130.085 56.8808 130.204 57.5574 130.354 58.4043C139.232 108.596 143.459 138.488 142.578 144.848C142.554 145.021 142.419 145.16 142.247 145.188C134.198 146.55 119.671 149.053 105.621 151.473C91.559 153.896 77.017 156.4 68.9622 157.763C68.1112 157.907 68.7436 157.858 66.5218 158.175C64.2999 158.491 62.0781 158.491 59.6047 158.491L59.6039 158.489ZM36.6399 42.9391C36.4414 44.3019 39.9602 68.7172 44.8354 99.7939C49.8913 132.026 53.8923 155.352 54.564 156.517C54.6331 156.625 55.0494 157.016 57.4737 157.404C58.8277 157.62 60.6381 157.808 62.8736 157.964C64.6318 157.677 66.5989 157.347 68.8288 156.969C76.8828 155.607 91.4232 153.102 105.485 150.68C119.365 148.289 133.711 145.818 141.817 144.445C142.317 139.572 140.529 120.538 129.563 58.5425C129.413 57.6956 129.294 57.019 129.209 56.5336C128.662 53.4231 127.384 46.138 126.24 40.031C124.631 31.4434 124.088 29.4305 123.905 29.0399C123.328 28.8254 119.948 28.6623 115.076 28.7531C110.821 28.8326 107.88 29.0552 106.725 29.2673C108.612 31.6563 109.081 35.6291 109.185 36.8891C110.714 36.8682 116.505 36.7219 119.026 35.7159C119.136 35.6717 119.26 35.6789 119.364 35.7352C119.469 35.7914 119.544 35.8903 119.568 36.0068C126.742 70.0663 131.593 102.924 134.4 136.455C134.409 136.563 134.374 136.67 134.303 136.752C134.233 136.834 134.132 136.884 134.024 136.89C122.434 137.599 112.605 139.266 99.5423 141.906C99.4057 141.933 99.2643 141.888 99.1695 141.786C99.0746 141.684 99.0385 141.54 99.0755 141.406L113.545 88.4156C113.605 88.0821 114.562 82.6332 113.845 78.6146C113.152 79.6817 112.446 80.9859 111.759 82.2563C110.975 83.7059 110.166 85.1997 109.365 86.3657C111.023 87.2126 112.359 87.5702 112.374 87.5742C112.578 87.6281 112.705 87.8298 112.666 88.0371C112.627 88.2444 112.435 88.3858 112.226 88.3617C112.204 88.3593 110.136 88.1271 108.545 88.2348C107.514 91.1726 106.531 94.8183 105.493 98.6722C104.184 103.528 102.705 109.017 100.822 114.207C103.499 115.29 104.673 115.733 104.685 115.737C104.871 115.807 104.978 116.003 104.936 116.198C104.894 116.392 104.716 116.528 104.518 116.514L100.306 116.253L96.2879 130.414C96.5129 131.782 96.9999 132.627 97.7006 132.861C98.3892 133.091 99.3254 132.716 100.204 131.857C100.33 131.734 100.52 131.707 100.675 131.79C100.83 131.874 100.912 132.048 100.879 132.221L99.3141 140.272C99.2828 140.433 99.1574 140.559 98.9959 140.59C98.7211 140.643 71.3391 145.955 59.1676 148.035C58.9539 148.072 58.7498 147.931 58.7064 147.719C53.8545 123.853 43.4524 48.5768 43.348 47.8191C43.3207 47.6182 43.446 47.4285 43.6413 47.3763C43.8775 47.3128 49.2405 45.8777 52.8018 45.7065L51.6744 39.8429C50.6539 39.9121 47.5634 40.1419 44.4489 40.5782C37.6194 41.5344 36.7427 42.616 36.6399 42.9399V42.9391ZM80.179 20.3029C79.4598 20.3029 78.6796 20.3414 77.8302 20.4218C73.978 20.7866 71.4355 21.8127 70.0566 23.5597C68.4575 25.5854 68.4792 28.4726 69.0023 32.1834C69.0289 32.3707 68.9212 32.5507 68.7436 32.6166C67.4434 33.0971 65.6748 33.3012 63.8025 33.5165C60.3368 33.9159 56.4082 34.3683 54.7802 36.7187C53.6062 38.4134 54.2707 43.5715 56.1109 47.2823L107.445 39.6855C107.139 36.2744 106.432 33.6724 105.959 31.9295C105.578 30.5273 105.346 29.6707 105.504 29.1315C105.214 28.8728 104.895 28.6574 104.545 28.4991C101.792 27.2568 97.5085 28.3625 94.3803 29.1693C91.9559 29.7945 90.6606 30.103 89.9977 29.7069C89.8008 29.5888 89.6682 29.4112 89.6152 29.1926L89.6015 29.1364C88.4074 24.2523 87.4424 20.3021 80.179 20.3021V20.3029Z" fill="black" stroke="black" stroke-width="0.5"/>
<path d="M63.0832 57.75C63.0832 56.799 61.6553 57 60.9859 57C59.8953 57 59.6563 57.5773 59.1526 58.493C58.7654 59.1971 58.6606 60.596 58.8609 61.375C59.1693 62.5742 61.0906 62.5853 62.0068 62.4375C62.917 62.2907 63.8202 61.6361 64.2637 60.8125C64.5274 60.3228 64.3332 59.3014 64.3332 58.75C64.3332 58.1984 64.1032 57.6012 63.9512 57.0694C63.8288 56.6409 62.6644 56.7771 63.3332 57" stroke="black" stroke-linecap="round"/>
<path d="M68.7083 57.875C69.2731 57.875 69.8379 57.875 70.4027 57.875C72.036 57.875 73.5955 57.3899 75.2499 57.5278C77.085 57.6807 78.8967 58.3762 80.743 57.8056C81.5097 57.5686 82.0107 57.1195 82.6805 56.7083C83.7827 56.0317 85.1327 55.738 86.361 55.3819C87.9534 54.9204 89.6561 53.936 91.3333 53.875C93.1019 53.8107 94.7717 52.6638 96.4513 52.1389C99.0188 51.3365 101.715 51.2295 104.278 50.4722C105.104 50.2281 105.955 49.875 106.833 49.875" stroke="black" stroke-linecap="round"/>
<path d="M65.9584 70.125C65.9584 69.3961 64.919 68.725 64.3056 68.5972C62.8196 68.2876 62.0332 68.6739 61.2709 69.9444C60.7201 70.8623 60.8767 72.1075 61.3959 72.9861C61.9569 73.9356 62.656 74 63.6667 74C64.6893 74 65.9596 74.0005 66.6806 73.125C67.2335 72.4537 67.3334 72.2613 67.3334 71.375C67.3334 70.6731 66.9174 70.2335 66.4028 69.8125C66.0151 69.4953 65.4246 68.9054 64.9584 68.75" stroke="black" stroke-linecap="round"/>
<path d="M71.2083 69.625C71.7268 69.625 72.2453 69.625 72.7638 69.625C74.2556 69.625 75.2887 68.7949 76.6249 68.2708C77.5361 67.9135 78.3942 68.0156 79.3333 68.0972C81.216 68.261 83.116 68 84.9999 68C85.6133 68 86.2086 68.0575 86.8194 68.0972C87.9837 68.173 88.8958 67.921 89.9791 67.4722C92.0113 66.6303 93.9928 65.62 96.1666 65.1806C99.0785 64.592 102.078 64.4877 104.993 63.882C105.273 63.8237 107.061 63.3304 107.208 63.625" stroke="black" stroke-linecap="round"/>
<path d="M69.0833 79.125C68.9119 79.1036 68.6807 78.8805 68.5069 78.8125C67.7712 78.5246 67.0571 78.5 66.2777 78.5C65.2583 78.5 64.4089 78.654 64.0277 79.7431C63.2881 81.8562 62.8658 85.125 65.9583 85.125C67.2048 85.125 68.2703 85.188 69.2083 84.25C69.7341 83.7241 70.0833 83.102 70.0833 82.3681C70.0833 81.1787 69.53 79.4109 68.4583 78.875" stroke="black" stroke-linecap="round"/>
<path d="M74.7083 80.25C76.3746 80.25 78.0763 80.3692 79.7083 79.9722C82.2726 79.3485 84.7395 78.1973 87.3333 77.7014C89.9225 77.2064 92.6074 77.4549 95.2221 77.0139C96.2865 76.8344 97.4887 77.0727 98.5138 76.75C99.5812 76.414 100.6 75.9829 101.639 75.5694C103.037 75.013 104.488 74.6765 105.944 74.3125C106.605 74.1472 107.153 73.875 107.84 73.875C108.326 73.875 109.052 74.0212 109.458 73.75" stroke="black" stroke-linecap="round"/>
</svg>
