<svg width="223" height="178" viewBox="0 0 223 178" fill="none" xmlns="http://www.w3.org/2000/svg">
<circle cx="111.667" cy="89" r="88.5" fill="#F1F7FB"/>
<path d="M73.7488 163.587C72.1524 163.587 70.409 163.253 69.6364 162.968C66.925 161.969 63.9305 162.156 60.7592 162.353C58.6285 162.486 56.4252 162.623 54.3207 162.364C51.5271 162.02 49.4323 161.282 47.7282 160.041C46.1478 158.89 44.9671 157.375 43.6007 155.622C42.8467 154.654 41.9919 153.557 40.9735 152.402C39.3412 150.551 37.3023 147.07 34.7414 141.762C34.3589 143.771 33.6015 149.725 33.0256 154.253C32.5105 158.301 32.0659 161.797 31.8546 162.931C31.8498 162.959 31.8422 162.985 31.8304 163.009C31.8111 163.051 31.7828 163.088 31.749 163.117C31.7124 163.148 31.6689 163.17 31.6212 163.182C31.5957 163.188 31.5695 163.192 31.5425 163.191H1.03263C0.860706 163.191 0.721924 163.052 0.721924 162.88C0.721924 162.708 0.860706 162.569 1.03263 162.569H31.2878C31.5128 161.227 31.9492 157.795 32.4091 154.175C32.8081 151.037 33.221 147.793 33.5759 145.247C34.2049 140.737 34.3113 140.704 34.5667 140.624C34.6903 140.586 34.8208 140.622 34.9085 140.72C34.9366 140.751 35.0402 140.953 35.2192 141.324C37.7573 146.601 39.8501 150.19 41.4395 151.992C42.4697 153.16 43.3307 154.266 44.0902 155.241C46.8085 158.73 48.6044 161.035 54.396 161.748C56.4439 162 58.6174 161.865 60.7199 161.734C63.8152 161.541 67.0161 161.341 69.8504 162.386C71.5138 162.999 75.7235 163.34 76.309 162.263C76.4857 161.937 76.5237 160.902 73.0687 158.317C71.143 156.876 69.1275 155.622 67.1784 154.409C63.0867 151.862 59.2223 149.457 56.0337 145.442C53.9313 142.793 52.5303 139.147 51.6238 133.966C50.8291 129.422 50.5356 124.423 50.2256 119.132C49.4412 105.768 48.6306 91.9492 39.2038 86.6513C38.6984 86.3676 38.231 86.1818 37.7974 86.0934C37.6379 87.4205 38.4195 88.7897 39.3067 90.3439C40.5454 92.5126 41.9491 94.9713 40.8768 97.8837C35.6694 112.034 40.4722 118.145 44.3319 123.055C47.4168 126.98 50.0806 130.369 46.9515 136.459C41.8573 146.372 47.8387 152.765 50.7124 155.836C51.7052 156.898 52.1589 157.382 52.018 157.822C51.9759 157.955 51.8599 158.127 51.5471 158.19C51.1025 158.281 50.6696 158.324 50.2491 158.324C45.3979 158.324 42.1369 152.605 39.703 148.337C38.7675 146.696 37.9596 145.28 37.2464 144.505C34.2477 141.251 32.7909 133.876 31.6206 127.949C31.0116 124.865 30.4861 122.202 29.8682 120.705C28.9492 118.478 28.7248 112.626 28.8118 108.292C28.9043 103.699 29.3842 98.2572 30.4537 96.7548C31.1766 95.7398 31.7041 94.0717 32.2627 92.3055C33.1789 89.4083 34.1269 86.4131 36.152 85.6129C36.5145 85.47 36.9005 85.4044 37.3078 85.4154C37.3154 85.3919 37.323 85.3685 37.3306 85.3443C37.8512 83.777 39.5256 82.423 42.5995 81.0835C42.7169 81.0276 43.4308 80.5829 44.4175 79.9587C43.9562 79.5949 43.9038 78.6206 44.229 76.6763C44.4375 75.428 45.4435 74.25 46.7167 72.7593C49.9032 69.0274 54.7184 63.3878 51.6155 50.6606C50.209 44.8904 51.244 39.0437 54.5292 34.1842C54.5327 34.1014 54.5589 34.0047 54.6252 33.897C55.1776 32.9959 58.6098 31.441 59.292 31.1379C60.2662 30.7057 63.5818 29.2923 65.3266 29.2406C66.3954 29.2088 67.3703 29.059 68.4019 28.9002C70.1639 28.6288 71.986 28.3485 74.3156 28.6951C74.7803 28.7641 75.2616 28.8159 75.7711 28.8712C77.9557 29.108 80.4317 29.3766 82.4174 31.1476C82.6412 31.3471 82.8559 31.5384 83.0623 31.7214C87.0345 35.2524 87.861 35.987 89.0817 41.9829C89.1929 42.5291 89.262 42.922 89.2923 43.1843C89.3165 43.3915 89.351 43.6877 89.177 43.8347C89.4242 44.4492 89.6362 45.07 89.7998 45.6603C90.1236 46.8299 90.3991 48.3793 89.8716 49.1209C88.2794 51.3573 89.2212 53.0033 89.9773 54.3255C90.4475 55.1479 90.8921 55.9246 90.4198 56.5847C90.2804 56.7801 90.1492 56.9617 90.0256 57.1329C88.9726 58.5905 88.4928 59.2554 87.8037 61.6237C87.7961 61.6492 87.7858 61.6734 87.7726 61.6955C86.7452 63.423 86.9627 64.6513 87.1733 65.8389C87.368 66.936 87.5689 68.0705 86.6644 69.3954C85.9478 70.4456 84.6228 70.7936 82.7261 70.4291C81.2727 70.1501 79.8427 69.5128 79.2324 69.2408C79.1965 69.2249 79.1599 69.2083 79.1254 69.1931C79.046 69.2422 78.9479 69.2511 78.8609 69.2208C76.6259 70.1908 75.4583 71.6988 75.2933 73.822C75.2194 74.7734 75.352 75.7656 75.5716 76.7281C75.6586 76.6528 75.8125 76.5617 76.0356 76.5865C76.0432 76.5686 76.0507 76.5506 76.0583 76.5341C76.1143 76.4119 76.2247 76.3338 76.3532 76.3249C76.6176 76.3062 76.7633 76.5375 77.0844 77.0422C77.3032 77.3868 77.576 77.8162 77.8114 78.0199C80.1652 80.0582 81.5475 80.5525 83.46 81.2368C84.3652 81.5606 85.3899 81.9272 86.6907 82.5127C87.7264 82.7302 90.2969 83.3703 92.5451 84.7319C93.9142 85.5611 94.9161 86.4987 95.5417 87.533C95.677 86.5264 95.8938 85.6999 96.2273 85.1668C96.6491 84.4923 97.158 84.5496 97.4238 84.6442C99.1659 85.2614 101.02 91.2104 101.737 93.7396C102.889 97.8063 103.92 102.99 103.623 105.402C103.467 106.673 102.993 107.55 102.215 108.009C101.789 108.261 101.272 108.377 100.695 108.361C101.315 108.768 102.017 109.247 102.797 109.794C104.104 110.711 105.098 111.012 105.751 110.69C106.058 110.538 106.298 110.251 106.487 109.873C106.651 108.292 106.867 107.007 107.143 106.358C107.151 106.338 107.159 106.319 107.168 106.3C107.178 106.128 107.186 105.957 107.194 105.789C107.278 103.829 105.01 102.029 104.333 101.539C104.331 101.538 104.33 101.536 104.328 101.536C104.077 101.375 103.911 101.268 103.996 101.029C104.047 100.884 104.197 100.799 104.348 100.828C104.405 100.839 104.546 100.923 104.735 101.058C105.218 101.363 106.411 102.072 108.641 103.258C109.274 103.594 109.891 103.829 110.473 104.003C111.163 104.034 111.895 104.23 112.641 104.5C113.405 104.658 114.028 104.825 114.392 105.219C114.454 105.246 114.516 105.274 114.578 105.301C116.146 105.989 117.767 106.699 119.112 106.59C119.92 106.523 121.452 106.88 123.573 107.374C128.796 108.591 136.69 110.43 141.199 107.571C145.451 104.876 154.196 95.2703 156.916 90.7941C157.744 89.4311 158.522 88.0405 159.27 86.6451C159.404 86.3033 159.494 86.1542 159.57 86.0824C160.325 84.6559 161.05 83.2274 161.764 81.8216C163.118 79.1537 164.397 76.6335 165.81 74.2431C166.349 73.3317 168.004 71.5856 168.627 70.9283C168.705 70.8468 168.778 70.7694 168.815 70.7294C169.08 70.1577 169.282 69.5998 169.42 69.055C169.471 68.0297 169.487 66.9892 169.47 65.9121C169.316 65.2996 169.061 64.7114 168.704 64.15C166.724 61.0354 161.973 59.3548 158.509 59.3548C158.337 59.3548 158.199 59.2153 158.199 59.0441C158.199 58.8729 158.337 58.7334 158.509 58.7334C159.891 58.7334 161.611 57.3097 163.498 54.6107C162.666 55.4406 161.734 56.2657 160.736 57.0473C157.694 59.4287 154.896 60.7647 153.019 60.7647C152.738 60.7647 152.477 60.7343 152.239 60.6736C151.152 60.394 150.002 59.3521 150.674 55.9826C150.609 55.6201 150.202 53.7552 149.479 51.9856C148.792 50.3071 147.659 48.3213 146.154 48.3779C145.017 48.4228 144.388 48.2509 144.113 47.8207C143.738 47.2332 144.148 46.4295 144.717 45.3178C145.557 43.6759 146.707 41.4271 145.692 38.9663C145.551 38.6252 145.697 37.9155 145.999 36.8052C146.022 36.721 146.042 36.6471 146.057 36.5884C146.497 33.8286 145.855 31.4217 145.509 30.1271C145.429 29.8288 145.367 29.5982 145.335 29.4166C145.261 29.2336 145.202 29.0382 145.16 28.8297C144.515 25.6633 145.176 22.9823 147.125 20.8598C149.856 17.886 154.64 16.5921 158.172 16.0307C162.466 15.3479 166.694 15.4197 169.22 15.7138C186.766 17.7569 200.486 52.9978 202.225 66.9567C202.661 70.4546 202.343 72.4362 201.279 72.847C201.237 72.8643 201.191 72.8719 201.142 72.8684C201.142 72.8684 201.141 72.8684 201.14 72.8684C201.128 72.8677 201.116 72.8657 201.104 72.8636C191.019 70.9959 182.683 72.3092 176.304 76.7661C176.281 80.8529 175.362 85.104 174.39 89.601C172.49 98.3912 170.526 107.481 175.617 115.454C178.428 119.857 179.257 122.603 178.223 124.096C177.6 124.996 176.362 125.335 174.711 125.335C172.405 125.335 169.291 124.675 165.908 123.958C160.712 122.857 154.824 121.609 151.116 122.724C150.851 122.803 150.584 122.873 150.316 122.935C151.328 123.017 152.208 123.183 152.808 123.471C153.384 123.749 153.688 124.13 153.714 124.604C153.876 127.604 153.725 130.194 153.579 132.698C153.291 137.667 153.041 141.959 155.372 147.608C155.394 147.661 155.415 147.715 155.434 147.768C156.19 146.535 157.341 145.779 158.91 145.473C160.985 145.069 163.554 145.47 166.275 145.895C170.786 146.598 175.45 147.326 178.723 144.664C181.256 142.605 182.631 138.76 182.929 132.91C183.047 130.586 184.999 129.333 187.067 128.007C189.347 126.545 191.931 124.887 192.631 121.464C193.453 117.445 191.586 111.655 186.923 103.763C181.243 94.1504 179.299 87.4785 180.977 83.3675C182.387 79.9166 186.034 78.9389 188.965 78.1532C190.617 77.7106 192.043 77.3281 192.642 76.6231C194.216 74.77 198.237 72.4914 200.708 73.2799C200.962 73.3607 201.235 73.4871 201.495 73.6825C201.511 73.6065 201.544 73.5465 201.595 73.494C201.692 73.3946 201.837 73.3621 201.975 73.4091C202.437 73.5658 203.501 75.2968 204.503 77.5249C205.42 79.5617 206.6 82.7254 207.017 86.2267C208.31 97.1083 208.368 104.995 207.236 116.368C207.153 117.202 207.011 118.474 206.83 120.083C205.91 128.283 203.997 145.347 205.201 148.268C205.211 148.293 205.218 148.319 205.221 148.346L205.278 148.786C205.288 148.863 205.269 148.94 205.225 149.003C204.973 149.653 205.034 156.133 205.064 159.256C205.073 160.175 205.081 160.969 205.081 161.534C205.081 161.791 205.081 161.988 205.079 162.133C216.566 162.423 222.309 162.569 222.309 162.569L222.293 163.191C222.293 163.191 216.443 163.042 204.743 162.747C204.577 162.742 204.444 162.608 204.44 162.443C204.44 162.412 204.443 162.381 204.451 162.353C204.469 162.115 204.456 160.728 204.442 159.263C204.368 151.481 204.44 149.375 204.65 148.781L204.609 148.466C203.376 145.298 205.219 128.862 206.211 120.014C206.391 118.407 206.533 117.138 206.616 116.307C207.742 104.985 207.685 97.1325 206.398 86.3013C205.817 81.4101 203.684 76.949 202.495 75.0033C204.726 81.707 204.287 90 203.994 95.5527C203.839 98.4747 203.717 100.782 204.008 101.843C204.647 104.174 204.383 112.965 203.868 120.145C203.343 127.457 202.385 135.813 201.269 137.338C200.445 138.465 199.658 139.474 198.898 140.381C198.551 141.001 198.174 141.617 197.765 142.232C196.307 144.427 193.39 146.254 189.053 147.695C188.039 148.056 186.97 148.358 185.82 148.632C183.536 149.209 180.957 149.705 178.086 150.119C178.062 150.122 178.039 150.126 178.015 150.129C177.694 150.186 177.367 150.245 177.033 150.306C176.378 150.425 175.265 150.538 173.875 150.644C166.955 151.381 160.028 151.553 155.084 151.553C154.955 151.553 154.86 151.552 154.798 151.551C154.477 151.543 154.407 151.377 154.404 151.239C154.404 151.211 154.407 151.156 154.433 151.099C152.718 152.467 149.655 152.66 147.104 151.516C146.92 151.433 146.739 151.345 146.563 151.25C146.448 151.98 146.35 153.794 146.363 156.654C146.376 159.596 146.499 162.174 146.663 162.924C146.7 163.092 146.593 163.258 146.426 163.294C146.258 163.331 146.093 163.224 146.056 163.057C145.854 162.133 145.752 159.177 145.741 156.657C145.735 155.227 145.75 151.991 145.997 150.916C144.82 150.157 143.84 149.104 143.122 147.821C142.027 145.86 141.534 143.388 141.659 140.472C141.661 140.425 141.663 140.217 141.668 139.929C141.679 139.098 141.701 137.551 141.75 136.192C141.777 135.431 141.81 134.833 141.846 134.412C141.852 134.346 141.858 134.282 141.864 134.22C139.431 136.103 134.769 135.933 130.611 135.782C128.891 135.72 127.267 135.661 125.909 135.746C124.517 135.833 122.669 135.378 120.841 134.499C119.211 133.714 117.901 132.734 117.503 132.004C117.265 131.568 117.366 131.273 117.492 131.104C117.72 130.795 118.307 130.443 120.757 130.941C121.412 131.075 122.143 131.304 122.916 131.547C125.956 132.5 129.741 133.688 133.281 130.664C133.487 130.489 133.545 130.366 133.531 130.31C133.516 130.251 133.399 130.035 132.513 129.748C131.851 129.534 130.984 129.347 130.066 129.149C128.666 128.847 127.311 128.556 126.393 128.126C126.201 128.291 125.843 128.494 125.164 128.756C123.684 129.326 120.886 130.077 117.97 130.468C115.723 130.77 112.756 130.939 111.198 130.076C111.093 130.141 110.984 130.194 110.87 130.236C109.777 130.638 108.448 129.886 106.806 127.936C105.984 126.961 106.055 119.264 106.078 117.73C106.109 115.597 106.205 113.138 106.38 111.017C106.27 111.107 106.151 111.185 106.024 111.248C105.139 111.685 103.966 111.376 102.438 110.304C100.995 109.292 99.8239 108.518 98.9567 108.003C99.3481 109.917 99.7293 111.999 99.7935 112.728C101.516 115.514 101.605 128.631 101.683 140.216C101.727 146.76 101.768 152.941 102.122 155.816C102.539 159.201 102.597 160.735 101.881 161.474C101.269 162.106 100.245 162.013 98.5493 161.857C97.5488 161.766 96.3032 161.652 94.7704 161.652C91.8443 161.652 90.3964 161.571 89.5533 161.092C88.6419 160.574 88.5004 159.659 88.2649 158.143C88.0937 157.037 87.8583 155.524 87.2299 153.513C86.5871 151.458 88.0164 146.78 89.67 141.363C91.383 135.753 93.3253 129.395 93.143 125.135C93.0698 123.418 93.5697 119.276 94.1497 114.479C94.8098 109.018 95.5575 102.827 95.5575 99.1997C95.5575 98.4236 95.5168 97.4017 95.4698 96.219C95.3725 93.7741 95.2613 90.975 95.4208 88.7268C94.3216 85.7427 90.0919 83.8571 86.5291 83.1155C86.507 83.1107 86.4856 83.1038 86.4649 83.0948C85.1724 82.5114 84.1505 82.1461 83.2495 81.8237C81.5972 81.2326 80.3281 80.7783 78.5288 79.4098C78.5316 79.4153 78.535 79.4209 78.5378 79.4264C79.3995 80.953 79.9939 82.4782 80.1293 83.5063C80.1334 83.5312 80.1728 83.7245 80.2232 83.9689C80.4483 85.0702 81.0469 87.997 81.4888 90.6449C81.738 92.1418 81.9017 93.335 81.9749 94.1911C82.0895 95.5334 82.0018 96.0257 81.629 96.1424C81.2444 96.2625 80.9592 95.8047 80.8225 95.5845C80.6022 95.2296 80.3371 94.6882 80.0126 93.9294C79.2068 92.0466 78.796 90.6712 78.5433 89.7708C78.4494 90.4613 78.0372 91.1455 77.3108 92.2896C76.6998 93.2514 76.2876 94.1449 75.8885 95.0093C75.7815 95.2413 75.6731 95.4767 75.5591 95.7156C75.4162 96.3412 75.3175 96.9681 75.2574 97.5964C76.271 101.358 77.3737 106.773 78.4404 112.789C79.5092 116.046 80.3896 119.166 80.3516 122.236C80.3419 123.001 80.3502 123.776 80.3737 124.559C81.7187 133.361 82.8414 142.042 83.4048 147.797C83.4966 148.73 83.7003 152.064 83.7811 155.384C83.9365 161.787 83.4946 162.414 83.3496 162.62C83.2674 162.737 83.1155 162.782 82.9829 162.731C82.8497 162.679 82.7689 162.543 82.7875 162.401C83.6561 155.736 82.5231 147.858 81.4273 140.239C80.6775 135.026 79.9056 129.659 79.7537 124.611C79.1495 120.66 78.5012 116.688 77.8383 112.947C77.6436 112.354 77.442 111.755 77.2397 111.151C75.7463 106.71 74.2176 102.163 74.625 97.6344C74.4399 96.9529 74.2549 96.3156 74.0698 95.7225C73.9863 95.5209 73.8986 95.309 73.813 95.1011C73.5547 94.4721 73.099 93.3488 72.9492 92.8993C72.14 90.4675 71.2362 90.1637 69.9844 89.7425C69.8705 89.7038 69.7538 89.6652 69.6343 89.6231C68.7809 89.8178 67.8813 90.56 66.9436 91.334C66.7206 91.5184 66.4955 91.7041 66.267 91.8857C65.8182 92.3359 65.4011 92.7923 65.0262 93.2031C63.9712 94.3582 63.2752 95.1218 62.6683 94.9969C62.4184 94.9458 62.234 94.7607 62.1194 94.4459C62.0497 94.3223 61.6112 93.6346 61.0602 92.7715C59.7208 90.6712 57.2282 86.7618 55.199 83.391C54.0714 81.5178 53.2146 80.0229 52.6532 78.9493C51.7046 77.1355 51.6687 76.7046 51.9441 76.4699C52.2521 76.2075 52.665 76.5313 53.0282 76.8551C53.8553 77.5932 55.2418 80.0299 56.8471 82.8511C58.1942 85.2186 59.7215 87.9024 61.0823 89.8461C62.9845 92.5623 63.7917 92.7211 64.1031 92.5734C64.6996 92.2917 65.2824 91.8726 65.8506 91.421C66.6743 90.598 67.6099 89.7908 68.6201 89.2868C67.719 88.9015 66.733 88.0509 65.7409 86.9558C64.1397 85.4361 62.3935 83.4573 61.6872 82.0363C61.1859 81.0276 60.7413 80.0816 60.3111 79.1661C60.2828 79.1053 60.2538 79.0446 60.2255 78.9845C60.1944 78.9306 60.1633 78.8768 60.1323 78.8236C59.1111 77.0526 58.1534 75.2429 57.436 73.7267C57.2254 73.282 57.059 72.9133 56.9286 72.6074C56.1173 73.8717 55.2383 74.7693 54.3552 74.9495C54.2447 74.9723 53.9665 75.0593 53.6192 75.1739C53.1511 75.4321 52.7188 75.5792 52.3412 75.6033C52.3059 75.6151 52.2714 75.6268 52.2376 75.6379C51.7384 75.9941 50.2159 76.9898 47.6958 78.6075C47.2318 78.9058 43.1505 81.5233 42.8467 81.6552C40.02 82.8863 38.4126 84.1422 37.9362 85.4927C38.4326 85.5956 38.9567 85.8014 39.5069 86.1107C49.23 91.5743 50.0509 105.566 50.8449 119.097C51.4581 129.542 52.0367 139.41 56.5191 145.056C59.6407 148.988 63.461 151.365 67.505 153.882C69.4652 155.103 71.4924 156.364 73.4394 157.821C76.3048 159.965 77.422 161.515 76.8538 162.561C76.4346 163.332 75.1469 163.589 73.7467 163.589L73.7488 163.587ZM204.73 162.125C204.701 162.127 204.673 162.133 204.648 162.142C204.674 162.133 204.701 162.127 204.73 162.125ZM95.9787 92.726C96.0015 93.9191 96.0491 95.1129 96.0919 96.1934C96.1396 97.3831 96.1803 98.4112 96.1803 99.199C96.1803 102.864 95.4298 109.074 94.7676 114.553C94.2153 119.124 93.694 123.442 93.7651 125.108C93.9522 129.474 91.9934 135.886 90.2659 141.544C88.7096 146.641 87.2389 151.455 87.8244 153.327C88.4665 155.381 88.7054 156.922 88.8801 158.047C89.1156 159.566 89.2364 160.196 89.862 160.552C90.5787 160.959 92.0162 161.031 94.7718 161.031C96.3329 161.031 97.5937 161.146 98.6073 161.239C100.119 161.377 101.031 161.46 101.437 161.041C101.965 160.496 101.875 158.879 101.507 155.891C101.149 152.981 101.109 147.067 101.063 140.22C100.989 129.195 100.896 115.472 99.2335 113.003C99.2025 112.957 99.1845 112.904 99.181 112.849C99.1134 111.734 97.8319 105.341 97.5288 104.607C97.0455 103.434 96.4551 97.5115 96.0243 93.1879C96.0084 93.0318 95.9932 92.8779 95.978 92.7267L95.9787 92.726ZM37.1787 86.0341C36.8984 86.0396 36.6333 86.0921 36.3813 86.1915C34.6309 86.8833 33.7285 89.7356 32.8558 92.494C32.282 94.3085 31.74 96.0222 30.9605 97.1166C30.1464 98.2593 29.5471 102.651 29.4332 108.305C29.322 113.848 29.7273 118.735 30.4426 120.469C31.0841 122.022 31.615 124.713 32.2302 127.829C33.3854 133.679 34.8229 140.959 37.7035 144.084C38.465 144.911 39.2888 146.356 40.243 148.029C42.7887 152.493 46.2727 158.602 51.3911 157.588C51.2599 157.331 50.7317 156.767 50.2587 156.261C48.8758 154.783 46.5607 152.309 45.2881 148.957C43.7491 144.904 44.1226 140.604 46.3984 136.175C49.3453 130.439 46.9169 127.35 43.843 123.44C39.8881 118.408 34.9665 112.146 40.2934 97.6696C41.2655 95.0286 39.9951 92.804 38.7668 90.6525C37.8623 89.0686 37.002 87.5614 37.178 86.0341H37.1787ZM142.37 136.293C142.34 137.176 142.313 138.359 142.291 139.937C142.286 140.277 142.284 140.443 142.281 140.497C141.983 147.474 145.335 150.039 147.36 150.947C149.932 152.101 152.696 151.683 154.063 150.597C150.566 151.275 148 150.977 146.238 149.69C143.311 147.553 142.938 143.073 142.506 137.885C142.462 137.363 142.418 136.83 142.37 136.292V136.293ZM155.627 148.752C155.647 149.526 155.341 150.246 154.723 150.845C154.69 150.878 154.656 150.909 154.621 150.94C154.658 150.927 154.701 150.918 154.752 150.914C154.794 150.911 154.856 150.907 154.937 150.902C155.093 150.894 155.321 150.884 155.613 150.872C156.193 150.848 157.043 150.817 158.026 150.78C162.015 150.632 169.271 150.363 173.717 150.03C175.149 149.879 176.583 149.704 178 149.5C178.445 149.421 178.879 149.344 179.304 149.268C181.863 148.815 184.042 148.429 185.985 147.948C186.752 147.75 187.497 147.539 188.216 147.314C191.953 146.089 194.903 144.155 198.396 140.01C201.663 134.158 201.508 129.253 201.359 124.494C201.269 121.635 201.184 118.934 201.872 116.206C203.004 111.72 203.014 103.517 203.023 96.2798C203.026 93.259 203.031 90.4053 203.124 88.2276C203.251 85.2559 202.866 82.5031 202.494 79.8414C202.316 78.5661 202.147 77.3612 202.046 76.1944C201.937 74.9426 201.423 74.1623 200.519 73.8737C199.555 73.5665 198.158 73.8019 196.584 74.5373C195.2 75.1842 193.871 76.1384 193.116 77.0277C192.391 77.8805 190.878 78.2864 189.126 78.756C186.328 79.5058 182.845 80.44 181.553 83.605C180.823 85.3912 180.844 87.7768 181.613 90.696C182.517 94.1235 184.483 98.4139 187.458 103.449C192.203 111.479 194.094 117.414 193.24 121.591C192.487 125.271 189.786 127.004 187.403 128.532C185.389 129.824 183.651 130.939 183.549 132.944C183.243 138.98 181.792 142.973 179.115 145.149C175.627 147.985 170.607 147.202 166.179 146.511C161.404 145.766 157.213 145.113 155.626 148.754L155.627 148.752ZM142.582 133.521C142.679 133.658 142.716 133.869 142.747 134.053C142.801 134.363 142.859 134.843 142.919 135.481C142.995 136.276 143.061 137.068 143.124 137.833C143.544 142.87 143.906 147.219 146.604 149.189C148.328 150.448 150.954 150.664 154.623 149.846C154.722 149.412 154.847 149.01 154.998 148.639C154.978 148.395 154.915 148.131 154.797 147.847C152.412 142.066 152.665 137.709 152.959 132.663C153.103 130.176 153.253 127.605 153.093 124.64C153.089 124.565 153.077 124.339 152.675 124.105C151.808 123.6 149.795 123.404 146.919 123.529C145.493 123.788 144.313 124.144 143.674 125.061C143.109 125.873 143.004 127.098 143.353 128.806C143.76 130.8 143.5 132.385 142.582 133.521H142.582ZM203.602 103.17C203.52 108.301 203.269 113.207 202.475 116.357C201.809 119 201.893 121.658 201.981 124.473C202.063 127.089 202.148 129.795 201.645 132.724C201.347 134.458 200.86 136.132 200.174 137.772C200.371 137.512 200.569 137.245 200.77 136.97C201.612 135.819 202.609 129.039 203.251 120.099C203.787 112.635 203.912 106.107 203.604 103.169L203.602 103.17ZM127.461 135.081C128.452 135.081 129.523 135.12 130.634 135.161C135.066 135.322 140.089 135.504 142.049 133.19C142.897 132.19 143.125 130.796 142.745 128.931C142.361 127.047 142.498 125.666 143.165 124.707C143.458 124.286 143.837 123.966 144.28 123.715C144.192 123.723 144.104 123.732 144.017 123.741C143.747 123.817 143.499 123.883 143.279 123.938C141.473 124.392 139.639 124.643 138.654 124.579C136.421 126.126 131.693 125.861 128.862 125.703C127.961 125.652 127.029 125.6 126.823 125.661C126.139 126.151 125.796 126.585 125.858 126.884C125.9 127.088 126.105 127.274 126.417 127.446C126.444 127.455 126.469 127.469 126.492 127.485C127.36 127.931 128.944 128.272 130.198 128.542C132.511 129.041 133.939 129.385 134.135 130.158C134.217 130.484 134.066 130.814 133.686 131.138C129.883 134.385 125.749 133.088 122.731 132.141C121.973 131.903 121.257 131.678 120.634 131.551C118.314 131.079 118.004 131.457 117.992 131.474C117.968 131.507 117.99 131.599 118.049 131.708C118.691 132.888 122.894 135.312 125.87 135.126C126.37 135.095 126.903 135.083 127.461 135.083V135.081ZM111.705 129.633C113.106 130.263 115.941 130.248 119.602 129.58C121.15 129.297 122.702 128.918 123.972 128.514C124.968 128.196 125.528 127.945 125.806 127.783C125.508 127.562 125.312 127.308 125.25 127.008C125.13 126.426 125.533 125.815 126.481 125.141C126.723 124.968 127.254 124.989 128.897 125.081C131.584 125.232 136.029 125.481 138.152 124.165C138.192 124.015 138.34 123.915 138.498 123.938C138.518 123.941 138.54 123.944 138.563 123.946C139.357 123.693 141.802 123.337 143.932 123.124C145.698 122.616 147.483 121.885 148.667 120.95C149.482 120.308 149.924 119.634 149.984 118.944C150.191 116.57 151.195 114.243 152.259 111.778C153.616 108.633 155.154 105.068 155.472 100.51C155.486 100.306 156.442 96.5325 157.315 93.2818C157.448 92.7874 157.576 92.3165 157.699 91.8698C157.677 91.8139 157.671 91.751 157.686 91.6882C157.702 91.6157 157.743 91.555 157.797 91.5121C157.988 90.8217 158.165 90.1934 158.328 89.6279C158.04 90.1271 157.747 90.6242 157.447 91.1172C154.697 95.6438 145.841 105.365 141.532 108.097C139.657 109.285 137.26 109.708 134.72 109.708C130.85 109.708 126.646 108.728 123.432 107.98C121.444 107.516 119.874 107.151 119.164 107.209C117.782 107.323 116.239 106.704 114.726 106.044C114.767 106.7 114.457 107.623 113.746 109.017C113.473 109.55 113.487 112.106 113.501 114.812C113.517 117.724 113.536 121.349 113.237 124.29C112.96 127.002 112.466 128.742 111.705 129.631V129.633ZM107.096 110.032C106.889 112.06 106.746 114.756 106.702 117.739C106.619 123.341 106.933 127.119 107.284 127.536C108.696 129.213 109.862 129.944 110.658 129.652C111.629 129.295 112.289 127.47 112.618 124.229C112.914 121.321 112.894 117.714 112.879 114.816C112.86 111.359 112.866 109.373 113.191 108.736C113.986 107.179 114.254 106.242 114.033 105.787C114.024 105.767 114.012 105.747 114 105.728C113.483 105.502 112.976 105.285 112.485 105.104C112.378 105.082 112.268 105.061 112.153 105.038C111.613 104.931 111.007 104.81 110.353 104.618C109.985 104.611 109.639 104.663 109.318 104.79C108.679 105.044 108.176 105.587 107.781 106.45C107.7 107.772 107.529 109.085 107.095 110.032H107.096ZM154.632 121.669C158.1 121.669 162.25 122.549 166.038 123.352C171.395 124.488 176.456 125.56 177.714 123.744C178.563 122.518 177.682 119.842 175.095 115.79C169.867 107.602 171.858 98.3849 173.784 89.4718C174.713 85.1758 175.592 81.1063 175.678 77.2218C175.555 77.3136 175.432 77.4075 175.31 77.5021C170.878 80.9419 167.365 86.0741 164.812 92.8206C167.777 93.4972 169.598 94.1138 169.934 94.7642C170.021 94.9334 170.027 95.1177 169.951 95.2834C169.588 96.0747 169.318 96.7265 169.102 97.2498C168.717 98.1833 168.48 98.7564 168.131 99.0878C167.975 100.512 167.52 103.917 167.09 106.938C166.874 108.455 166.558 110.63 166.275 112.372C165.857 114.96 165.787 115.009 165.646 115.106C165.559 115.166 165.45 115.18 165.352 115.144C164.364 114.777 163.328 114.301 162.231 113.796C159.691 112.628 156.817 111.305 154.119 111.27C154.079 111.289 154.034 111.3 153.987 111.301C153.742 111.31 153.62 111.114 153.418 110.652C153.222 111.12 153.024 111.577 152.83 112.026C151.742 114.547 150.802 116.725 150.604 118.999C150.529 119.865 150.007 120.686 149.053 121.439C148.285 122.044 147.322 122.54 146.365 122.935C146.528 122.926 146.692 122.918 146.856 122.91C147.236 122.842 147.627 122.781 148.021 122.72C148.991 122.57 149.995 122.414 150.938 122.13C152.024 121.804 153.276 121.67 154.632 121.67L154.632 121.669ZM154.101 110.648C156.938 110.677 159.886 112.034 162.491 113.232C163.467 113.681 164.395 114.107 165.274 114.45C165.692 112.659 167.087 102.649 167.467 99.4186C166.968 99.5076 166.304 99.3688 165.198 99.1313C164.391 99.1472 163.572 99.1072 162.845 99.0485C162.501 100.369 162.185 101.739 161.899 103.154C163.3 104.073 163.917 105.839 163.366 107.442C162.849 108.948 161.429 109.936 159.874 109.936C159.7 109.936 159.525 109.924 159.35 109.899C157.597 109.648 156.265 108.183 156.183 106.414C156.104 104.71 157.206 103.179 158.826 102.701C159.106 101.309 159.413 99.9585 159.748 98.6501C158.549 98.4429 157.32 98.1675 157.109 97.9203C157.016 97.8119 156.999 97.6627 157.065 97.5412C157.179 97.3292 157.439 97.323 157.795 97.3361C158.105 97.3479 158.555 97.39 159.131 97.4611C159.442 97.4991 159.742 97.5384 160.031 97.5778C160.488 95.8986 160.991 94.2933 161.539 92.7646C160.821 92.6238 160.152 92.4967 159.584 92.389C159.053 92.2889 158.601 92.2026 158.27 92.1363C158.144 92.5969 158.009 93.0954 157.864 93.6346C156.93 97.1193 156.135 100.307 156.091 100.565C155.836 104.199 154.831 107.197 153.749 109.854C153.789 109.943 153.831 110.044 153.876 110.149C153.938 110.295 154.032 110.515 154.101 110.65L154.101 110.648ZM158.725 103.393C157.531 103.873 156.744 105.067 156.804 106.385C156.873 107.855 157.98 109.075 159.438 109.283C160.896 109.492 162.301 108.633 162.779 107.239C163.22 105.958 162.762 104.55 161.69 103.764C161.587 104 161.429 104.362 161.217 104.848C161.713 105.359 161.887 106.113 161.648 106.797C161.382 107.559 160.662 108.071 159.855 108.071C159.048 108.071 158.327 107.56 158.062 106.797C157.811 106.078 158.016 105.281 158.572 104.772L158.725 103.394L158.725 103.393ZM75.2015 99.8908C75.3202 102.778 76.1087 105.677 77.0319 108.545C76.4153 105.311 75.7973 102.359 75.2015 99.8908ZM98.9608 107.341C99.0153 107.341 99.0789 107.353 99.1541 107.383C100.267 107.83 101.242 107.862 101.899 107.474C102.502 107.118 102.874 106.396 103.006 105.326C103.254 103.312 102.504 98.724 101.139 93.9087C99.7659 89.0624 98.1896 85.5749 97.216 85.2297C97.1373 85.2021 96.9743 85.1441 96.7541 85.4962C96.3667 86.1155 96.1562 87.2513 96.0519 88.6309C96.1603 88.9568 96.2362 89.2903 96.2777 89.632C96.3654 90.348 96.4938 91.635 96.6422 93.1251C97.0455 97.1691 97.6545 103.28 98.1032 104.369C98.2337 104.686 98.523 105.926 98.8268 107.371C98.8627 107.353 98.9069 107.341 98.9601 107.341H98.9608ZM159.322 103.643L159.176 104.962C159.167 105.044 159.124 105.12 159.06 105.171C158.635 105.509 158.47 106.08 158.649 106.592C158.827 107.105 159.312 107.449 159.855 107.449C160.398 107.449 160.883 107.105 161.062 106.592C161.241 106.08 161.075 105.509 160.65 105.171C160.539 105.084 160.502 104.933 160.558 104.803C160.776 104.305 160.944 103.92 161.061 103.652C160.179 103.708 159.65 103.696 159.323 103.643H159.322ZM106.683 102.905C107.302 103.689 107.674 104.476 107.783 105.229C108.151 104.749 108.584 104.413 109.09 104.212C109.11 104.204 109.131 104.197 109.151 104.189C108.888 104.078 108.62 103.951 108.349 103.807C107.704 103.465 107.152 103.164 106.683 102.905V102.905ZM159.395 103.024C159.598 103.062 160.097 103.1 161.293 103.012C161.573 101.629 161.881 100.288 162.217 98.9905C161.975 98.9663 161.75 98.9408 161.546 98.9159C161.223 98.8766 160.81 98.8199 160.365 98.7502C160.012 100.124 159.688 101.551 159.396 103.024H159.395ZM163.107 98.0701C163.976 98.2324 164.681 98.3843 165.255 98.5078C165.263 98.5092 165.27 98.5113 165.278 98.5127C166.232 98.4899 167.105 98.3836 167.774 98.1523C167.855 98.124 167.944 98.1309 168.018 98.1702C168.167 97.8858 168.325 97.5012 168.527 97.0116C168.744 96.4869 169.013 95.8351 169.378 95.0404C169.328 94.9437 168.921 94.468 165.693 93.6657C165.337 93.5773 164.968 93.4896 164.594 93.4047C164.054 94.8843 163.558 96.4406 163.108 98.0708L163.107 98.0701ZM160.654 97.6634C161.329 97.7615 161.94 97.8609 162.492 97.9582C162.943 96.3198 163.438 94.7552 163.977 93.2666C163.37 93.1333 162.758 93.0063 162.167 92.8875C161.616 94.4024 161.111 95.996 160.653 97.6634H160.654ZM74.6595 95.5209C74.7099 95.6411 74.7568 95.7543 74.7996 95.8572C74.8549 95.7453 74.9087 95.6342 74.9612 95.5237C75.2443 94.3126 75.6876 93.1057 76.3304 91.9023C76.9622 90.7195 77.3564 89.8295 77.6174 89.2398C77.6996 89.0548 77.7693 88.8967 77.8321 88.7641C77.7797 88.5846 77.7078 88.3913 77.6181 88.1745C77.6022 88.1696 77.5863 88.1641 77.5704 88.1565C77.3122 88.0398 77.063 87.4088 76.8289 86.2806C76.8178 86.226 76.8061 86.1687 76.7944 86.11C76.5375 85.1068 76.251 83.5408 76.0521 81.9466C75.6979 80.6561 75.4604 79.5969 75.3444 78.7856C75.303 78.4957 75.2761 78.2381 75.265 78.0116C74.8735 76.6653 74.5635 75.1939 74.674 73.7729C74.8445 71.5683 76.028 69.9133 78.1953 68.8438C77.6312 68.6049 76.7564 68.3363 75.8478 68.0573C73.3269 67.2833 70.1888 66.3201 68.6573 64.7383C67.2744 63.3104 66.5832 61.913 66.481 60.3415C66.4341 59.6124 66.5183 58.8798 66.6799 58.1562C66.5784 58.1873 66.4734 58.1983 66.3664 58.1879C65.9583 58.1493 65.6214 57.8041 65.3659 57.202C65.0822 57.1412 64.7859 57.039 64.4794 56.8933C63.9415 56.6386 63.3947 56.6828 62.8541 57.0245C61.6023 57.8165 60.762 59.9106 60.762 61.3696C60.762 61.8377 60.6639 62.5399 60.4851 63.3823C60.5327 65.794 59.4287 68.4081 58.0581 70.5409C57.833 71.0146 57.5983 71.4703 57.3566 71.8963C57.4347 72.3451 58.1451 73.6507 58.5049 74.1361C58.5132 74.1479 58.5214 74.1596 58.5283 74.1727C59.4087 75.7904 60.0805 77.208 60.7785 78.6924C62.0524 80.8867 64.1521 84.2679 66.2186 86.5498C66.9381 87.2313 67.6368 87.8237 68.2099 88.2263C68.6352 88.5245 69.0364 88.722 69.4237 88.8774C69.5197 88.8898 69.6122 88.8919 69.7013 88.885C69.7807 88.8787 69.856 88.9029 69.9147 88.9478C70.1791 88.9333 70.4463 88.9644 70.7177 89.05C72.1787 89.5153 73.4201 91.5349 74.6609 95.5196L74.6595 95.5209ZM78.3921 88.1669C78.4045 88.1669 78.4169 88.1669 78.4301 88.1683C78.7532 88.1924 78.8361 88.4914 79.0563 89.2903C79.2952 90.1561 79.6957 91.6054 80.5843 93.6836C80.9889 94.6296 81.2457 95.0991 81.3983 95.3317C81.4453 94.5936 81.2637 92.1508 79.6149 84.0918C79.5327 83.6907 79.5175 83.6168 79.5141 83.585C79.3843 82.5963 78.7387 80.9944 77.868 79.5044C77.2804 78.4984 76.7944 77.8853 76.4547 77.5477C76.3967 78.1111 76.4043 78.8678 76.4574 79.7095C76.7868 80.7051 77.0588 81.5634 77.0588 82.1716C77.0588 82.5611 77.0685 82.9339 77.0864 83.2902C77.092 83.3074 77.0968 83.3247 77.1023 83.342C77.5097 84.6891 77.808 85.8414 77.9654 86.6741C78.0614 87.1809 78.0931 87.4971 78.0869 87.7029C78.1608 87.8727 78.2257 88.0316 78.2823 88.1814C78.3161 88.171 78.352 88.1662 78.3907 88.1662L78.3921 88.1669ZM52.529 77.2411C52.7851 77.9095 53.5902 79.5272 55.9543 83.4366C57.9332 86.7086 60.2186 90.2928 61.5843 92.4346C62.631 94.0758 62.6745 94.1483 62.6987 94.2174C62.7422 94.3416 62.7843 94.381 62.7926 94.3851C62.794 94.3851 62.9245 94.4148 63.3463 94.0434C63.5908 93.8286 63.8697 93.5379 64.1825 93.2003C64.1003 93.221 64.0161 93.2314 63.9298 93.2314C62.1843 93.2314 59.6358 89.0072 56.3071 83.1562C54.7943 80.498 53.3658 77.9868 52.6146 77.3164C52.5842 77.2894 52.5552 77.2639 52.5283 77.2411H52.529ZM162.384 92.3006C163.023 92.4298 163.626 92.5568 164.193 92.6811C164.893 90.8169 165.662 89.0762 166.5 87.4675C167.257 86.0134 168.077 84.6538 168.957 83.391C167.884 84.6676 167.035 85.8545 166.63 87.0242C166.575 87.1816 166.406 87.2679 166.246 87.2203C166.087 87.1719 165.994 87.0069 166.035 86.8454C166.356 85.5956 166.657 84.4184 166.936 83.2992C165.18 85.9036 163.662 88.905 162.384 92.3006V92.3006ZM158.436 91.5336C158.758 91.5985 159.193 91.6806 159.701 91.7766C160.418 91.9119 161.103 92.0445 161.754 92.1736C162.466 90.2555 163.25 88.4631 164.103 86.8032C165.09 84.8851 166.182 83.1217 167.372 81.5199C168.316 77.5946 168.959 74.3729 169.267 71.1554C169.26 71.163 169.253 71.1706 169.248 71.1768C169.209 71.2189 169.151 71.2797 169.079 71.3556C168.527 71.9377 166.849 73.7087 166.346 74.5594C164.944 76.9325 163.668 79.4443 162.318 82.1033C161.592 83.5339 160.855 84.9873 160.084 86.4401C160.081 86.447 160.077 86.4539 160.073 86.4601C159.994 86.6099 159.914 86.7597 159.834 86.9096C159.632 87.4371 159.229 88.6668 158.435 91.5329L158.436 91.5336ZM167.912 81.9245C167.706 82.7765 167.489 83.6534 167.26 84.5586C168.06 83.4193 169.113 82.2462 170.259 80.9689C170.74 80.4324 171.236 79.8793 171.732 79.3069C170.845 80.1037 170.275 80.3378 169.874 80.0872C169.772 80.0229 169.693 79.9318 169.636 79.8137C169.04 80.4814 168.465 81.1857 167.912 81.9252V81.9245ZM170.038 69.151C170.016 69.577 169.987 70.0017 169.953 70.427C169.699 73.5803 169.112 76.7619 168.284 80.3488C168.689 79.8517 169.106 79.3718 169.532 78.9106C169.619 77.7893 170.22 75.9617 171.063 73.5257C171.507 72.2429 172.01 70.7881 171.975 70.4967C171.248 64.5988 171.273 62.1629 171.314 58.1279C171.328 56.7884 171.343 55.2694 171.332 53.3948C171.276 43.9756 167.509 42.603 165.017 41.6943C164.114 41.365 163.401 41.1054 163.064 40.5281C159.915 35.1329 155.021 33.7575 151.089 32.6535C150.305 32.4332 149.564 32.2247 148.887 31.9982C149.366 32.5264 149.911 33.1251 150.541 33.8093C151.19 34.5143 152.72 35.2745 154.34 36.0788C157.126 37.4632 160.284 39.0319 161.404 41.289C162.011 42.5139 163.097 43.9832 164.248 45.5388C165.074 46.6566 165.948 47.838 166.711 49.0263C166.787 48.8958 166.913 48.7805 167.11 48.8578C167.261 48.9179 167.341 49.085 167.292 49.2403C167.246 49.3874 167.191 49.5393 167.128 49.6946C167.962 51.079 168.609 52.4592 168.819 53.7449C169.633 58.7141 170.04 62.4688 170.097 65.8465C170.345 66.8898 170.326 67.9931 170.038 69.1517V69.151ZM170.206 79.561C170.212 79.561 170.551 79.6342 171.824 78.361C173.121 77.0643 174.086 76.0501 174.795 75.2788C173.124 76.4077 171.573 77.7362 170.139 79.2634C170.147 79.503 170.201 79.5569 170.206 79.561V79.561ZM55.1596 34.2105C55.172 34.2885 55.1548 34.3693 55.1092 34.4362C51.8723 39.1679 50.8456 44.8773 52.2196 50.5128C53.6206 56.2588 53.5854 61.0941 52.1126 65.2941C50.8615 68.861 48.8254 71.2459 47.1897 73.1626C45.9793 74.5808 45.023 75.7007 44.8428 76.7785C44.4382 79.1985 44.7765 79.4575 44.8166 79.4789C44.8318 79.4872 44.9836 79.5493 45.5188 79.164C45.5906 79.1122 45.6644 79.0556 45.7411 78.9955C45.6762 78.941 45.632 78.8644 45.6161 78.7753C45.5906 78.6344 45.5381 78.341 46.8803 76.6487C47.4866 75.885 48.3034 74.946 48.6935 74.6291C50.8477 72.8802 51.8779 71.3812 53.0703 69.6447C53.5674 68.9218 54.0811 68.174 54.708 67.3641C56.767 64.7059 57.1619 63.5673 57.5797 62.3618C57.8738 61.5139 58.1776 60.6377 59.0621 59.2292C59.5965 58.3785 60.3401 57.5831 61.0589 56.8146C62.8651 54.8834 64.5712 53.0599 63.4285 50.294C62.9314 49.0912 63.3098 47.3692 64.3489 46.1063C65.1968 45.0755 66.2822 44.6039 67.3268 44.8124C68.6587 45.0789 69.4244 45.3171 69.8318 45.4504C69.7752 44.9664 69.8104 44.0812 70.5768 42.6727C70.8896 42.0989 71.056 41.1406 71.2321 40.127C71.4675 38.7709 71.7347 37.2333 72.4259 35.9877C73.2489 34.5046 74.5041 33.7271 76.2641 33.6111C80.3702 33.3405 81.8741 34.5764 83.7777 36.141C84.35 36.6112 84.9418 37.098 85.6626 37.5985C86.6279 38.2683 87.6635 40.4239 88.4203 41.9974C88.4382 42.0347 88.4562 42.0727 88.4748 42.1107L88.4735 42.1051C87.2942 36.3122 86.585 35.6818 82.6501 32.184C82.4437 32.0003 82.229 31.8097 82.0046 31.6095C80.1679 29.9711 77.8991 29.7253 75.7055 29.487C75.1898 29.4311 74.703 29.3786 74.2259 29.3075C71.9888 28.9754 70.2143 29.2481 68.4978 29.5126C67.4932 29.6673 66.4541 29.8268 65.3466 29.8599C64.235 29.893 61.9578 30.6235 59.4045 31.7669C56.7621 32.9504 55.3405 33.9025 55.161 34.2091L55.1596 34.2105ZM175.352 75.5902C174.739 76.5527 174.066 77.4586 173.372 78.3189C173.878 77.8584 174.397 77.422 174.929 77.0098C175.178 76.8165 175.431 76.6273 175.687 76.4436C175.702 75.9092 175.787 75.4155 175.9 74.9847C175.738 75.1663 175.557 75.3679 175.353 75.5902H175.352ZM147.966 30.9784C148.878 31.3858 150.01 31.7041 151.257 32.0549C153.24 32.6121 155.487 33.2431 157.667 34.439C160.204 35.831 162.145 37.7201 163.601 40.2147C163.825 40.5979 164.445 40.8237 165.23 41.1102C167.723 42.0188 171.895 43.5392 171.954 53.3907C171.965 55.2708 171.95 56.7918 171.936 58.1341C171.895 62.1436 171.87 64.5636 172.592 70.4208C172.643 70.8357 172.304 71.8403 171.651 73.7287C171.221 74.9723 170.733 76.3815 170.431 77.5311C170.373 77.75 170.326 77.9461 170.288 78.1207C171.053 77.3509 171.847 76.6363 172.673 75.9776C173.605 75.2332 174.582 74.5552 175.601 73.9455C175.85 73.4864 176.082 73.0148 176.293 72.5301C177.497 69.7683 180.814 68.0304 185.632 67.6355C188.677 67.3862 192.108 67.7287 195.046 68.5759C196.864 69.0999 198.395 69.7835 199.556 70.5754C199.568 70.583 199.58 70.5906 199.591 70.5996C200.283 71.0767 200.842 71.5925 201.247 72.1366C201.585 71.792 202.063 70.6721 201.61 67.0361C200.798 60.521 197.171 48.4062 191.127 37.2015C187.973 31.354 184.615 26.6106 181.146 23.1038C177.16 19.0743 173.123 16.7965 169.148 16.3332C165.159 15.8685 152.635 15.7808 147.583 21.2824C145.776 23.2495 145.165 25.7482 145.769 28.7082C145.775 28.7379 145.781 28.7676 145.789 28.7973C145.994 28.8573 146.203 29.0714 146.434 29.3082C146.76 29.6424 147.247 30.1823 147.922 30.9301C147.936 30.9467 147.951 30.9632 147.967 30.9798L147.966 30.9784ZM66.8394 45.3862C66.1379 45.3862 65.4219 45.7784 64.8274 46.5013C63.9422 47.5777 63.5949 49.0732 64.0016 50.0571C64.5836 51.467 64.556 52.7948 63.9153 54.1177C63.3615 55.2625 62.4211 56.2678 61.5111 57.2399C60.7799 58.0222 60.0888 58.7603 59.5861 59.5606C58.7389 60.909 58.4476 61.7514 58.1652 62.5661C57.7495 63.7661 57.3193 65.0069 55.1976 67.7452C54.581 68.5413 54.0721 69.2815 53.5805 69.9975C52.4109 71.6995 51.3069 73.3069 49.0829 75.1124C48.5878 75.5143 47.278 77.0788 46.618 78.031C46.9777 77.7493 47.5259 77.2867 48.3579 76.5265C49.1471 75.8056 50.1276 75.3782 51.166 74.926C52.491 74.3481 53.8615 73.7508 54.8544 72.4845C54.9228 72.3975 55.4648 72.0406 55.6754 71.9128C56.0537 71.6836 56.3251 71.5614 56.526 71.502C56.4425 71.1609 56.5012 71.076 56.5536 71.0001C59.892 66.1551 59.7622 62.6324 59.736 62.2471C59.7228 62.0483 59.8609 61.9247 60.0038 61.9054C60.0384 61.9005 60.0722 61.9019 60.1047 61.9081C60.1267 61.7024 60.1385 61.5222 60.1385 61.371C60.1385 59.7532 61.0492 57.4312 62.5199 56.5005C63.2421 56.0434 64.0113 55.9861 64.7438 56.3334C64.8771 56.3962 65.0062 56.4501 65.1312 56.4949C64.8315 55.3205 64.73 53.5936 64.8681 51.4919C64.8709 51.4532 64.8709 51.3435 64.8709 51.2164C64.8709 49.3777 65.0014 47.2014 66.0267 46.6891C66.4569 46.4737 66.9602 46.5793 67.5229 47.0019C68.0387 47.3892 68.3874 48.4187 68.5911 49.5041C69.1793 47.4306 69.8518 46.9977 70.5506 46.5482C71.1188 46.183 71.656 45.8377 72.2035 44.3512C72.2436 44.2435 72.2753 43.8264 72.3057 43.4239C72.4735 41.22 72.8664 36.0574 76.996 35.6984C79.9587 35.4409 82.1834 36.8791 83.971 38.0349C84.6656 38.4837 85.3215 38.9076 85.9277 39.1728C86.0803 39.2391 86.235 39.3343 86.391 39.4538C86.0203 38.8469 85.646 38.3463 85.3063 38.1109C84.5641 37.5958 83.9358 37.0793 83.3806 36.6229C81.513 35.0873 80.1631 33.9785 76.3028 34.2326C72.8457 34.4604 72.3126 37.5281 71.8424 40.234C71.6491 41.3463 71.482 42.3068 71.1209 42.971C70.2613 44.55 70.427 45.3303 70.4898 45.6244C70.5188 45.7618 70.5589 45.9503 70.4014 46.0911C70.2357 46.2403 70.0597 46.1816 69.7407 46.0766C69.3499 45.9475 68.6235 45.7073 67.2032 45.4235C67.0831 45.3993 66.9616 45.3876 66.8394 45.3876V45.3862ZM50.093 76.2765C49.629 76.4754 49.1126 76.8517 48.5927 77.2874C49.1575 76.9228 49.6953 76.5748 50.169 76.2662C50.1414 76.271 50.1158 76.2738 50.093 76.2765ZM176.913 73.989C176.721 74.4109 176.44 75.1269 176.341 75.9893C179.342 73.9739 182.76 72.6116 186.527 71.9329C190.667 71.1865 195.337 71.2466 200.419 72.1124C200.103 71.772 199.718 71.4461 199.276 71.1381C190.448 69.7172 182.983 70.6749 176.912 73.989H176.913ZM55.3205 72.8988C54.6887 73.6942 53.9403 74.2383 53.1518 74.6733C53.2312 74.6464 53.3071 74.6215 53.3789 74.5973C54.0618 74.2052 54.8586 73.5327 55.6588 72.6585C55.5352 72.7407 55.4192 72.8229 55.3205 72.8988ZM176.828 73.1232C176.898 73.1232 176.954 73.1488 176.989 73.1702C179.296 71.9688 181.8 71.0912 184.477 70.5485C188.479 69.7372 192.968 69.6544 197.84 70.2992C194.735 68.7602 190.06 67.8958 185.682 68.2548C183.03 68.4723 178.358 69.3492 176.863 72.7787C176.808 72.9057 176.751 73.0314 176.693 73.1564C176.741 73.1322 176.787 73.1232 176.828 73.1232V73.1232ZM168.769 70.8806C168.767 70.9138 168.771 70.9483 168.78 70.9821C168.771 70.949 168.768 70.9144 168.769 70.8806ZM168.802 70.7598C168.788 70.7867 168.778 70.8178 168.773 70.8495C168.778 70.8212 168.786 70.7936 168.798 70.7674L168.802 70.7598V70.7598ZM79.0183 68.5048C79.1067 68.5048 79.2165 68.5538 79.4858 68.6739C83.0064 70.2426 85.2497 70.3676 86.1514 69.0454C86.913 67.9296 86.7501 67.0113 86.5616 65.948C86.3434 64.7169 86.0962 63.3222 87.2182 61.4131C87.9314 58.9723 88.4645 58.2335 89.5216 56.7697C89.6445 56.5992 89.775 56.419 89.9137 56.2243C90.1423 55.9039 89.882 55.4116 89.4373 54.6342C88.6827 53.3147 87.542 51.3214 89.3648 48.7611C89.6576 48.3503 89.5961 47.2532 89.2005 45.8267C88.5225 43.3797 86.9103 40.2796 85.6799 39.7431C85.0274 39.4586 84.3507 39.0209 83.6347 38.5576C81.8375 37.3955 79.8006 36.0795 77.0505 36.3184C73.4463 36.6319 73.0949 41.2517 72.9257 43.4722C72.8795 44.084 72.8539 44.3864 72.787 44.5673C72.1669 46.2486 71.4868 46.6863 70.8868 47.0723C70.1377 47.5542 69.4224 48.0141 68.8051 51.351C68.8583 52.4675 68.8251 54.4961 68.0546 55.8998C67.9186 56.4169 67.7625 56.8526 67.5885 57.2006C66.7061 59.9686 66.8456 61.9772 69.1041 64.3088C70.5243 65.7754 73.7066 66.7524 76.0307 67.4656C77.3681 67.8764 78.3907 68.1899 78.932 68.5206C78.9617 68.5103 78.9893 68.5048 79.0183 68.5048V68.5048ZM160.217 58.8529C163.569 59.3017 167.444 61.0098 169.229 63.8172C169.292 63.916 169.352 64.0161 169.409 64.1169C169.26 61.1631 168.865 57.8724 168.207 53.8457C168.029 52.7575 167.504 51.5768 166.809 50.3754C166.635 50.7075 166.428 51.0521 166.192 51.407C164.811 53.952 162.552 57.5437 160.218 58.8529H160.217ZM146.222 47.7565C147.022 47.7565 147.78 48.1687 148.478 48.9842C149.281 49.9211 149.999 51.3731 150.614 53.2995C150.96 54.3849 151.33 55.8763 151.296 56.0503C150.815 58.4089 151.186 59.7615 152.395 60.0722C154.007 60.4865 157.057 59.1408 160.355 56.5585C162.583 54.8137 164.463 52.8645 165.62 51.1543C165.929 50.5881 166.189 50.082 166.391 49.6788C165.593 48.4021 164.643 47.1172 163.749 45.9075C162.582 44.3291 161.48 42.8377 160.848 41.5638C159.822 39.4938 156.764 37.9748 154.065 36.634C152.32 35.7674 150.813 35.0183 150.086 34.2291C149.058 33.1133 148.254 32.2233 147.6 31.4983C147.106 31.2712 146.669 31.0157 146.305 30.7133C146.657 32.1343 147.06 34.2781 146.67 36.7023C146.669 36.712 146.667 36.721 146.664 36.7306C146.649 36.7935 146.626 36.8749 146.601 36.9688C146.328 37.9762 146.216 38.5693 146.27 38.7323C147.394 41.4561 146.118 43.9507 145.273 45.6016C144.853 46.4233 144.456 47.2 144.639 47.4873C144.716 47.6074 145.012 47.8021 146.132 47.7579C146.163 47.7565 146.194 47.7558 146.224 47.7558L146.222 47.7565ZM66.0854 57.2655C66.2035 57.4616 66.3215 57.5617 66.4258 57.5714C66.5521 57.5831 66.7551 57.4298 66.9754 57.0266C66.7033 57.1688 66.4051 57.2489 66.0861 57.2655H66.0854ZM65.8237 56.6482C66.5038 56.6972 67.0382 56.3879 67.4428 55.7175C67.4518 55.7023 67.4615 55.6864 67.4704 55.6705C67.6016 55.1603 67.7218 54.5306 67.8164 53.76C67.9324 52.8183 68.0546 52.0104 68.1823 51.3151C68.1768 51.2164 68.1706 51.117 68.163 51.0169C68.0207 49.1188 67.5353 47.7876 67.1508 47.4983C66.7917 47.229 66.5079 47.1434 66.3056 47.2449C65.9349 47.4299 65.493 48.2695 65.4937 51.2164C65.4937 51.3711 65.4937 51.4733 65.4895 51.5326C65.3238 54.0563 65.531 55.7182 65.823 56.6482H65.8237Z" fill="black" stroke="black" stroke-width="0.5"/>
</svg>
