<svg width="15" height="15" fill="none" xmlns="http://www.w3.org/2000/svg"><path d="M12.5 0h-10A2.5 2.5 0 0 0 0 2.5v10C0 14 1.1 15 2.5 15h10c1.4 0 2.5-1.1 2.5-2.5v-10C15 1 13.9 0 12.5 0Zm-9 13.6a.6.6 0 1 1 0-1.2.6.6 0 1 1 0 1.2Zm7.6 0a.6.6 0 1 1 0-1.2c.4 0 .7.2.7.6 0 .4-.3.6-.7.6Zm2.6-3.5c0 .5-.4 1-1 1H2.3a1 1 0 0 1-1-1V2.5c0-.7.6-1.2 1.3-1.2h10c.7 0 1.2.5 1.2 1.2V10Z" fill="#0473BD"/><path d="M10 9.5c.6 0 1-.6.8-1.1a3.5 3.5 0 0 0-6.6 0c-.2.5.2 1 .8 1h5ZM9 3.7a1.4 1.4 0 1 1-3 0 1.4 1.4 0 0 1 3 0Z" fill="#0473BD"/></svg>