<svg width="32" height="32" viewBox="0 0 32 32" fill="none" xmlns="http://www.w3.org/2000/svg">
<circle cx="16" cy="16" r="16" fill="#BAD9ED"/>
<path d="M16 7.9999C11.5882 7.9999 8 11.5881 8 15.9999C8 20.4117 11.5882 23.9999 16 23.9999C20.4118 23.9999 24 20.4117 24 15.9999C24 11.5881 20.4118 7.9999 16 7.9999ZM12.9976 9.9538C12.6296 10.5155 12.3179 11.1819 12.0718 11.9296C11.6539 11.8296 11.2601 11.714 10.8976 11.5819C11.4796 10.91 12.1937 10.3561 12.9976 9.9538V9.9538ZM10.1562 19.3796C9.57808 18.3835 9.24214 17.232 9.24214 16C9.24214 14.7703 9.57808 13.618 10.1539 12.6242C10.6335 12.8203 11.1695 12.9883 11.7476 13.1281C11.5578 14.0164 11.4515 14.982 11.4515 15.9999C11.4515 17.0202 11.5593 17.9858 11.7492 18.8741C11.1718 19.0139 10.6359 19.1843 10.1562 19.3796L10.1562 19.3796ZM10.9 20.4202C11.2601 20.2882 11.6539 20.1726 12.0718 20.0726C12.3179 20.8187 12.6297 21.4843 12.9976 22.0468C12.1937 21.646 11.482 21.0921 10.9 20.4202H10.9ZM15.3796 22.6296C14.5319 22.2835 13.7897 21.2515 13.3014 19.8374C13.9631 19.7374 14.6615 19.6757 15.3796 19.6515V22.6296ZM15.3796 18.41C14.5452 18.4358 13.7335 18.5124 12.9678 18.6342C12.7935 17.8202 12.6959 16.9303 12.6959 16.0022C12.6959 15.0741 12.7935 14.1843 12.9678 13.3726C13.7357 13.4945 14.5474 13.5703 15.3818 13.5969V18.4101L15.3796 18.41ZM15.3796 12.3522C14.6592 12.328 13.9616 12.2663 13.3 12.1663C13.7882 10.7507 14.5296 9.71628 15.3796 9.37028V12.3522ZM21.1038 11.5843C20.742 11.7163 20.3475 11.8319 19.9295 11.9319C19.6834 11.1843 19.3694 10.5179 19.0038 9.95614C19.8061 10.3561 20.5202 10.91 21.1038 11.5843V11.5843ZM16.6218 9.37026C17.4694 9.71636 18.2139 10.7499 18.7014 12.1663C18.0396 12.2639 17.3412 12.328 16.6218 12.3522V9.37026ZM16.6218 13.5921C17.4561 13.5663 18.2679 13.4897 19.0336 13.3678C19.2078 14.1819 19.3054 15.0717 19.3054 15.9974C19.3054 16.9256 19.2078 17.8154 19.0336 18.6294C18.2656 18.5076 17.4554 18.4318 16.6218 18.4052V13.5921ZM16.6218 22.6297V19.6501C17.3421 19.6743 18.0397 19.736 18.7 19.836C18.2117 21.2501 17.4703 22.2844 16.6218 22.6298V22.6297ZM19.0022 22.0461C19.3678 21.4843 19.6818 20.8179 19.9279 20.0718C20.3459 20.1718 20.7397 20.2875 21.0998 20.4195C20.5178 21.0922 19.8061 21.6461 19.0022 22.0461H19.0022ZM22.7576 16.0001C22.7576 17.2321 22.4216 18.3845 21.8435 19.3783C21.3638 19.1822 20.8294 19.0142 20.2497 18.8744C20.4396 17.9845 20.5474 17.0205 20.5474 16.0002C20.5474 14.9822 20.4396 14.0181 20.2513 13.1284C20.831 12.9885 21.3654 12.8205 21.8474 12.6245C22.4216 13.6206 22.7576 14.7705 22.7576 16.0003V16.0001Z" fill="#005186"/>
</svg>
