<svg width="648" height="398" viewBox="0 0 648 398" fill="none" xmlns="http://www.w3.org/2000/svg">
<path d="M-0.400734 224.583C-10.2236 164.697 -49.5326 164.335 -49.5326 103.649C-49.5326 53.1704 -21.9378 10.7687 85.0761 10.7687C184.364 10.7687 195.735 38.5461 286.316 79.2054C385.919 123.915 476.755 -8.01475 573.706 42.188C717.609 116.704 630.404 384.86 490.248 466.205C364.908 538.952 315.461 421.692 170.553 419.765C74.417 418.487 -3.09265 466.205 -49.5326 419.765C-111.895 357.403 13.8747 311.614 -0.400734 224.583Z" fill="#A1D6E7" fill-opacity="0.23"/>
<path fill-rule="evenodd" clip-rule="evenodd" d="M298.463 44.4243C298.463 44.4243 273.498 10.3769 250.677 10.7721C220.296 11.2982 203.564 41.059 203.563 72.6921C203.563 132.548 309.904 183.071 309.904 183.071C309.904 183.071 407.496 124.083 407.496 63.9425C407.496 39.713 389.323 10.7721 365.767 10.7721C336.381 10.7721 298.463 44.4243 298.463 44.4243ZM292.405 57.8817H317.981V84.8035H344.903V110.379H317.981V137.301H292.405V110.379H265.483V84.8035H292.405V57.8817Z" fill="#ABA9EF"/>
<path d="M82.5781 440.168C74.3029 426.897 77.6786 406.8 92.9011 378.735C94.4029 374.95 112.217 358.564 115.051 356.771C120.933 353.048 127.627 346.186 134.715 338.922C150.308 322.942 167.979 304.831 184.417 312.664C190.862 315.734 195.865 318.89 201.163 322.232C205.893 325.216 210.786 328.302 217.006 331.494C230.976 338.658 246.245 338.225 261.009 337.806C265.059 337.692 269.009 337.579 272.849 337.623C260.602 336.498 248.119 335.466 235.541 334.54C221.492 333.503 212.411 322.104 205.778 313.78C202.588 309.774 199.573 305.991 197.677 305.991C197.664 305.991 197.649 305.991 197.635 305.991C197.624 305.991 197.615 305.991 197.604 305.991C197.168 305.991 196.781 305.705 196.655 305.283C196.422 304.663 194.013 301.441 176.758 285.185L176.247 284.704C172.246 280.928 168.483 276.289 165.918 271.979C162.474 266.192 161.053 260.991 161.696 256.522C162.375 251.799 165.345 248.07 170.522 245.436C183.912 238.625 195.173 233.913 206.6 233.06C217.381 232.255 228.305 234.622 244.296 241.225C245.137 241.574 245.95 241.905 246.731 242.227C260.82 247.997 266.091 250.156 266.825 267.299C266.95 270.25 264.999 273.034 261.139 275.464C268.661 277.408 275.644 280.317 278.757 282.829C280.849 284.519 288.523 287.567 297.424 290.245C306.536 292.986 314.188 294.515 316.467 294.05C319.6 293.41 321.868 293.578 323.242 294.55C323.634 293.743 324.022 293.101 324.431 292.587C326.114 290.476 328.065 290.527 331.295 290.613C334.651 290.701 339.718 290.836 348.244 288.813C351.67 288.002 356.554 288.249 361.493 289.003C361.315 288.763 361.152 288.511 361.005 288.251C358.127 283.193 361.335 275.85 364.164 269.372C364.988 267.489 365.785 265.662 366.32 264.101C363.935 258.959 364.312 250.425 365.299 247.549C365.034 247.56 364.772 247.567 364.512 247.567C356.951 247.567 351.569 242.657 348.902 237.39C347.57 234.758 346.623 231.324 348.343 230.303C350.29 229.147 354.355 227.799 359.093 226.546C358.457 223.886 358.444 219.632 359.126 214.479C359.082 214.367 359.036 214.25 358.992 214.137C358.404 213.93 356.024 213.495 346.423 213.537C340.022 213.568 332.852 213.793 328.569 213.928C326.658 213.987 325.394 214.027 324.931 214.027C324.676 214.027 324.542 214.06 324.482 214.082C324.467 214.228 324.524 214.512 324.729 214.964C329.32 218.242 334.233 222.168 335.829 226.793C335.928 227.085 335.891 227.404 335.721 227.663C335.554 227.921 335.276 228.084 334.97 228.108C334.631 228.135 333.836 228.199 329.785 224.264C328.567 223.081 325.546 220.04 323.791 217.331C323.555 216.967 323.352 216.625 323.181 216.301C322.564 215.864 321.954 215.436 321.362 215.024C320.182 214.199 319.065 213.42 318.096 212.692C315.599 210.813 301.964 209.221 292.009 208.058C276.672 206.267 274.1 205.747 273.662 204.355C273.514 203.883 273.662 203.391 274.06 203.038C274.283 202.84 274.582 202.754 274.875 202.8C279.312 203.51 283.296 203.239 286.775 201.995C185.038 198.051 161.751 217.715 134.803 240.48C120.49 252.571 104.27 266.275 74.4351 277.602C45.8332 288.463 20.2921 309.017 -4.41008 328.897C-25.9171 346.208 -46.2328 362.556 -66.2843 370.345L-67 368.494C-47.2348 360.816 -27.0357 344.56 -5.64981 327.349C19.1712 307.372 44.8401 286.716 73.7348 275.745C103.253 264.537 118.645 251.535 133.528 238.962C147.145 227.457 160.007 216.592 182.239 209.241C206.864 201.099 240.271 198.172 287.372 200.032C289.298 200.109 291.001 199.615 292.498 198.702C295.213 196.421 297.521 193.243 299.412 189.193C301.363 184.437 302.588 178.996 303.532 174.794C303.75 173.826 303.959 172.895 304.158 172.061C286.46 164.716 270.702 156.571 257.308 147.843C243.693 138.971 232.132 129.249 222.95 118.946C213.75 108.621 206.677 97.4227 201.927 85.6619C197.175 73.8945 194.619 61.2404 194.33 48.0481C194.33 48.004 194.33 47.9577 194.337 47.9136C195.665 36.2256 200.623 25.5236 208.683 16.9654C216.74 8.40734 227.116 2.8203 238.687 0.808707C250.259 -1.20289 261.905 0.555052 272.372 5.89505C282.466 11.0431 290.518 19.0432 295.726 29.0791C309.707 17.6536 322.654 9.5565 334.226 5.00394C346.167 0.305808 356.999 -0.759544 366.419 1.83436C374.115 3.95624 381.038 8.56615 386.995 15.5362C392.898 22.4444 398.014 31.8715 402.2 43.5529C402.222 43.6147 402.237 43.6764 402.246 43.7404C403.768 53.8866 402.876 64.3218 399.601 74.7569C396.338 85.1546 390.613 95.839 382.587 106.51C366.657 127.694 340.971 149.746 306.236 172.066C305.148 179.195 303.462 185.201 301.194 190.053C300.877 190.816 300.542 191.564 300.187 192.29C298.353 196.035 296.177 198.711 293.687 200.296C293.352 200.574 293.013 200.841 292.665 201.095C289.829 203.177 286.579 204.465 282.95 204.953C285.865 205.345 289.212 205.736 292.24 206.089C306.364 207.738 316.572 209.064 319.288 211.107C320.228 211.815 321.329 212.584 322.496 213.398C322.529 213.42 322.56 213.442 322.593 213.467C322.63 213.341 322.681 213.222 322.742 213.109C323.005 212.624 323.599 212.046 324.931 212.046C325.363 212.046 326.682 212.004 328.507 211.947C333.048 211.804 340.649 211.565 347.288 211.552C350.974 211.543 353.905 211.612 355.984 211.748C358.254 211.898 359.424 212.119 360.056 212.443C361.5 211.029 365.195 209.627 374.622 209.088C381.71 208.682 389.129 208.96 390.586 209.108C394.977 206.942 404.585 206.349 412.316 206.252C422.337 206.128 432.035 206.805 434.807 207.518C435.129 207.602 435.388 207.84 435.499 208.155C435.75 208.881 436.045 209.155 436.417 209.496C437.251 210.264 437.872 211.021 438.007 213.29C438.722 213.29 439.427 213.277 440.125 213.257C441.006 213.025 442.305 212.743 444.247 212.39C447.861 211.731 452.267 211.1 456.653 210.615C463.658 209.838 476.584 208.786 484.478 210.465C488.787 211.38 491.172 213.052 491.571 215.432C491.654 215.928 491.35 216.409 490.868 216.55C490.384 216.689 489.873 216.444 489.679 215.979C488.393 212.889 484.456 213.063 480.649 213.233C479.239 213.295 477.907 213.354 476.749 213.233C467.787 212.311 460.425 213.204 453.306 214.069C449.173 214.572 444.925 215.088 440.407 215.236C440.398 215.236 440.391 215.24 440.383 215.242C440.44 215.346 440.502 215.456 440.568 215.573C442.754 216.438 444.15 217.719 444.738 219.411C445.368 221.224 445.784 222.55 446.011 223.461C446.178 224.133 446.416 225.097 445.91 225.635C448.744 225.192 451.122 226.03 452.892 227.102C455.244 226.101 459.128 225.036 464.972 223.571C468.049 222.799 470.955 222.071 472.541 221.491C476.489 220.046 478.913 220.41 480.402 221.429C487.367 215.339 504.672 214.495 510.631 214.984C510.876 215.004 511.168 215.037 511.488 215.075C512.175 215.154 513.776 215.341 514.185 215.152C514.394 214.989 514.663 214.918 514.927 214.953C519.529 215.591 524.828 217.955 529.099 221.277C533.607 224.782 536.137 228.668 536.045 231.939C535.956 235.001 533.649 238.83 523.143 239.675C519.252 239.988 517.526 240.239 516.599 240.374C515.742 240.497 515.405 240.539 514.804 240.471C514.828 240.526 514.846 240.581 514.859 240.641C514.879 240.725 514.901 240.808 514.925 240.895C515.037 241.073 515.189 241.305 515.328 241.519C516.141 242.758 517.537 244.887 518.598 247.501C521.408 252.06 524.163 257.371 520.311 261.235C518.277 263.278 516.108 264.542 513.835 265.512C509.651 268.629 503.373 270.987 495.052 272.557C483.124 276.942 470.845 280.478 458.893 283.919C447.094 287.316 434.988 290.801 423.156 295.115C422.564 295.486 422.018 295.865 421.525 296.253C420.049 297.411 414.597 299.63 409.11 301.306C407.511 301.794 405.393 302.392 403.125 302.901C398.637 304.401 395.84 304.833 393.834 304.527C393.81 304.624 393.786 304.721 393.759 304.82C393.372 306.331 392.784 308.616 394.033 312.125C395.42 316.027 395.382 318.919 393.918 320.966C391.088 324.921 383.621 324.806 374.17 324.662C367.685 324.563 360.417 324.453 353.463 325.633C353.071 325.854 352.648 326.068 352.19 326.275C344.093 329.945 338.628 333.245 334.237 335.896C332.865 336.723 331.586 337.497 330.348 338.208C327.477 340.422 325.193 341.36 323.394 341.565C315.996 344.251 306.84 344.381 285.89 340.669C278.2 339.306 269.877 339.542 261.062 339.794C246.049 340.219 230.522 340.66 216.099 333.263C209.799 330.031 204.869 326.921 200.102 323.913C194.856 320.604 189.9 317.476 183.56 314.457C168.399 307.233 151.254 324.806 136.127 340.312C128.957 347.661 122.183 354.603 116.104 358.452C113.296 360.227 95.7329 376.589 94.7332 379.476C94.7156 379.527 94.6936 379.578 94.6671 379.626C79.7904 407.039 76.3817 426.5 84.2516 439.118L82.5715 440.17L82.5781 440.168ZM288.754 339.152C292.874 339.853 296.49 340.396 299.698 340.786C299.223 340.696 298.754 340.603 298.294 340.515C296.006 340.072 294.03 339.688 292.619 339.544C291.335 339.412 290.047 339.282 288.754 339.152ZM198.225 304.048C200.899 304.469 203.64 307.91 207.329 312.54C213.732 320.578 222.503 331.586 235.686 332.559C255.128 333.99 274.349 335.676 292.817 337.568C294.317 337.722 296.334 338.113 298.668 338.565C304.95 339.783 313.831 341.505 318.299 339.445C316.44 336.944 316.354 332.786 317.535 329.553C320.228 322.163 321.338 321.422 322.245 321.294C322.762 321.222 323.245 321.44 323.573 321.89C325.18 324.107 323.363 336.214 322.417 338.161C322.181 338.644 321.895 339.079 321.562 339.467C321.996 339.597 322.476 339.641 322.996 339.599C325.103 338.805 327.087 337.789 329.21 336.573C330.386 335.664 331.63 334.557 332.925 333.26C338.478 327.698 345.494 325 352.811 323.721C356.407 321.561 356.224 318.972 356.017 316.021C355.845 313.572 355.649 310.797 357.926 308.468C360.32 306.018 365.091 304.461 372.942 303.565C377.2 303.08 380.554 302.661 383.247 302.325C385.557 302.036 387.327 301.816 388.699 301.675C386.797 298.986 380.523 295.834 372.418 293.463C371.757 293.361 371.068 293.267 370.348 293.176C368.06 292.894 366.137 292.351 364.594 291.553C358.008 290.262 352.128 289.934 348.709 290.743C339.934 292.825 334.708 292.686 331.251 292.596C328.065 292.512 327.008 292.545 325.988 293.825C325.524 294.407 325.072 295.254 324.579 296.425C325.671 300.111 321.472 305.83 321.111 306.154C320.763 306.468 320.274 306.51 319.891 306.26C319.514 306.018 319.349 305.537 319.486 305.111C320.712 301.3 321.615 298.521 322.419 296.476C321.712 295.578 319.757 295.406 316.87 295.997C312.882 296.813 300.546 293.256 296.86 292.148C289.715 289.998 280.363 286.674 277.52 284.375C274.507 281.943 267.12 278.954 259.554 277.112C259.23 277.033 258.911 276.958 258.591 276.885C258.334 277.013 258.069 277.139 257.799 277.264C252.474 279.728 246.542 280.987 243.08 281.318C239.72 281.638 238.137 281.206 237.945 279.918C237.613 277.661 238.463 275.881 240.405 274.77C244.679 272.321 253.41 273.717 258.332 274.796C258.82 274.54 259.296 274.273 259.754 273.995C262.145 272.548 264.973 270.228 264.849 267.389C264.171 251.519 259.954 249.792 245.985 244.071C245.201 243.749 244.388 243.416 243.545 243.067C213.104 230.497 199.494 232.932 171.423 247.212C166.853 249.536 164.242 252.766 163.66 256.811C162.419 265.446 170.399 276.459 177.608 283.266L178.119 283.747C193.051 297.817 197.142 302.341 198.225 304.057V304.048ZM322.166 323.855C321.668 324.654 320.792 326.403 319.398 330.23C318.424 332.901 318.493 336.434 319.931 338.309C320.215 338.009 320.452 337.669 320.635 337.29C321.459 335.598 322.494 326.771 322.166 323.855ZM391.13 303.475C389.697 303.521 387.028 303.854 383.492 304.295C380.792 304.633 377.434 305.049 373.164 305.537C365.891 306.366 361.37 307.78 359.34 309.858C357.686 311.55 357.827 313.557 357.992 315.882C358.153 318.162 358.34 320.825 356.446 323.196C362.502 322.497 368.635 322.589 374.203 322.675C382.725 322.803 390.084 322.916 392.311 319.806C393.368 318.328 393.321 316.032 392.17 312.787C390.719 308.704 391.423 305.96 391.844 304.322C391.877 304.194 391.912 304.055 391.945 303.92C391.714 303.801 391.491 303.669 391.278 303.523C391.227 303.508 391.179 303.49 391.13 303.472V303.475ZM393.359 301.933C395.803 302.211 399.143 301.767 402.649 300.978C405.073 300.155 408.068 298.993 411.816 297.418C415.277 295.964 418.777 294.603 422.298 293.315C426.294 290.858 431.942 288.809 437.018 286.969C440.724 285.626 444.225 284.356 446.504 283.136C457.873 277.053 477.883 273.552 491.126 271.236C491.965 271.088 492.779 270.947 493.568 270.808C493.891 270.751 494.211 270.693 494.528 270.634C497.474 269.549 500.396 268.413 503.283 267.213C505.131 266.445 506.866 265.872 508.546 265.316C510.072 264.811 511.519 264.332 512.895 263.757C514.916 262.197 516.35 260.446 517.187 258.507C518.686 255.031 518.008 251.385 516.808 248.365C516.563 247.97 516.319 247.58 516.074 247.194C514.826 245.204 513.637 243.312 513.102 241.695C512.78 241.119 512.719 240.753 513.014 240.314C513.042 240.27 513.075 240.231 513.111 240.193C511.944 239.995 510.089 239.69 506.804 239.251C504.23 238.907 494.347 239.196 484.282 240.158C470.013 241.523 465.422 243.263 464.972 244C464.88 244.3 464.796 244.607 464.726 244.918C468.478 245.59 471.504 247.845 473.043 253.189C474.388 257.859 475.172 261.593 475.373 264.286C475.577 267.039 475.188 268.66 474.146 269.39C473.648 269.738 472.576 270.146 470.971 268.971C467.159 266.178 461.676 255.441 462.458 246.66C459.511 246.587 455.92 247.309 451.677 248.248C447.854 249.095 443.91 249.971 440.123 250.055C438.969 251.597 435.791 251.709 431.583 251.857C427.122 252.013 421.703 252.205 418.948 254.367C420.177 254.303 421.346 254.887 422.322 256.085C424.092 258.258 425.451 262.61 426.36 269.019C426.715 271.516 426.922 273.788 427.032 275.255C427.252 278.193 427.217 278.248 427.01 278.552C426.204 279.724 425.248 279.766 424.751 279.686C423.513 279.49 421.707 278.29 418.697 270.696C417.147 266.787 415.956 262.854 415.731 262.104C415.229 260.426 415.04 258.915 415.163 257.574C412.243 258.328 408.973 258.721 405.349 259.153C397.318 260.113 387.325 261.308 375.456 267.25C371.554 269.202 369.137 267.857 367.793 266.384C367.745 266.331 367.696 266.275 367.65 266.22C367.168 267.447 366.591 268.768 365.983 270.162C363.471 275.914 360.346 283.072 362.731 287.263C363.284 288.233 364.109 289.029 365.224 289.656C367.344 290.079 369.412 290.571 371.308 291.085C371.832 291.229 372.349 291.374 372.86 291.522C384.582 293.366 388.034 297.285 390.366 299.932C390.895 300.53 391.368 301.07 391.899 301.505C392.595 301.547 393.031 301.686 393.359 301.933ZM482.315 274.831C470.297 277.077 456.164 280.218 447.44 284.887C446.993 285.128 446.504 285.368 445.98 285.608C450.124 284.378 454.258 283.189 458.351 282.009C466.265 279.73 474.32 277.41 482.315 274.831ZM239.872 279.318C241.418 279.777 248.764 278.822 255.275 276.19C248.839 275.021 243.796 275.105 241.391 276.483C240.253 277.134 239.766 278.041 239.872 279.318ZM417.266 256.945C416.962 258.183 417.083 259.698 417.629 261.524C420.84 272.288 423.962 277.553 425.063 277.727C425.094 277.73 425.14 277.705 425.195 277.652C425.149 276.492 424.907 272.361 424.196 267.932C422.868 259.656 421.038 257.314 420.067 256.654C419.541 256.297 419.028 256.253 418.404 256.511C418.032 256.665 417.651 256.809 417.266 256.943V256.945ZM464.424 246.85C463.654 255.048 469.015 265.078 472.144 267.369C472.713 267.786 472.992 267.78 473.014 267.764C473.032 267.751 474.776 266.355 471.145 253.74C469.89 249.378 467.646 247.426 464.424 246.85ZM368.469 263.924C368.696 264.326 368.941 264.679 369.203 264.976C370.511 266.47 372.268 266.633 374.578 265.477C386.755 259.383 396.937 258.163 405.12 257.186C409.123 256.707 412.679 256.281 415.72 255.362C415.896 254.958 416.114 254.576 416.372 254.217C419.166 250.315 426.017 250.072 431.52 249.878C433.501 249.808 435.373 249.742 436.734 249.512C438.401 249.232 438.57 248.826 438.586 248.78C438.714 248.363 439.099 248.081 439.533 248.081C443.285 248.081 447.337 247.183 451.254 246.314C455.204 245.438 459.219 244.549 462.753 244.706C462.848 244.26 462.96 243.821 463.092 243.394C463.369 242.502 464.105 240.136 483.67 238.226C493.207 237.295 503.924 236.865 507.07 237.286C510.884 237.796 512.793 238.124 513.932 238.323C514.836 238.479 515.631 238.507 516.317 238.409C517.266 238.272 519.034 238.014 522.987 237.696C530.04 237.127 533.975 235.063 534.065 231.882C534.223 226.35 523.958 218.368 514.987 216.967C514.141 217.338 512.877 217.232 511.261 217.044C510.966 217.011 510.695 216.978 510.473 216.96C504.142 216.442 487.862 217.594 481.765 222.865C481.886 223.061 481.994 223.26 482.089 223.461C482.853 225.088 483.027 227.318 482.608 230.089C482.443 231.174 482.223 232.092 482.067 232.672C481.745 233.863 481.635 234.09 481.281 234.297C480.838 234.555 480.268 234.434 479.97 234.015C477.255 230.199 476.725 226.774 478.392 223.833C478.572 223.514 478.779 223.205 479.006 222.905C477.76 222.252 475.822 222.402 473.223 223.353C471.539 223.97 468.584 224.709 465.455 225.494C462.337 226.275 459.111 227.085 456.477 227.916C455.825 228.121 455.264 228.313 454.784 228.487C458.248 231.509 460.232 236.057 459.851 238.032C459.71 238.757 459.243 239.264 458.6 239.388C457.908 239.52 456.07 239.873 450.201 230.695C449.911 230.241 449.858 229.716 450.056 229.218C450.188 228.882 450.441 228.565 450.825 228.251C448.44 227.188 445.242 226.983 441.451 229.69C436.91 232.928 431.953 233.741 428.069 234.207C427.999 234.78 427.919 235.779 427.849 236.688C427.223 244.627 426.55 248.449 424.427 248.707C422.427 248.952 420.919 245.646 419.259 240.614C418.426 238.095 418.426 236.318 419.254 235.021C419.34 234.884 419.435 234.756 419.536 234.637C415.289 235.305 409.286 236.441 401.781 238.076C388.534 240.961 376.67 244.097 372.926 245.701C371.211 246.435 369.568 246.934 368.003 247.229C368.271 247.869 368.456 248.861 368.613 250.348C368.872 252.819 368.996 256.431 368.98 261.09C368.978 261.917 368.789 262.868 368.469 263.924ZM520.016 255.042C519.93 256.445 519.622 257.874 519.01 259.294C518.889 259.575 518.757 259.852 518.616 260.126C518.717 260.029 518.816 259.932 518.917 259.83C520.232 258.511 520.432 256.853 520.016 255.042ZM366.684 250.937C366.565 252.172 366.505 253.714 366.576 255.439C366.635 256.879 366.778 258.222 366.998 259.438C366.981 255.313 366.844 252.651 366.684 250.937ZM426.052 234.438C423.531 234.734 421.588 235.054 420.926 236.09C420.457 236.823 420.529 238.135 421.141 239.99C422.835 245.125 423.837 246.365 424.18 246.66C424.374 246.393 424.797 245.549 425.198 243.003C425.526 240.912 425.717 238.484 425.871 236.532C425.944 235.612 425.999 234.941 426.05 234.438H426.052ZM349.451 231.957C349.156 232.76 350.054 236.796 353.5 240.559C356.275 243.592 362.387 248.054 372.149 243.874C376.791 241.885 391.049 238.36 402.328 235.925C408.799 234.529 414.751 233.382 419.089 232.696C425.686 231.653 427.166 231.86 427.723 232.248C431.548 231.796 436.104 231.07 440.306 228.073C441.854 226.968 443.325 226.277 444.699 225.896C444.02 225.598 443.375 224.57 442.481 223.064C441.6 221.581 440.557 219.667 439.718 218.13C439.537 217.801 439.361 217.477 439.194 217.17C434.915 215.78 427.386 215.908 417.314 217.549C411.466 218.502 406.188 219.746 403.221 220.551C404.305 221.793 404.408 224.061 403.591 228.207C402.764 232.411 402.217 233.534 401.075 233.419C399.965 233.309 399.771 231.893 399.641 230.958C399.518 230.067 399.423 228.827 399.357 227.274C399.269 225.205 399.254 223.022 399.251 221.681C398.353 221.859 397.287 222.155 396.155 222.473C392.877 223.388 388.382 224.643 383.238 224.38C379.847 224.208 371.162 225.669 363.297 227.535C363.11 228.269 362.826 228.814 362.462 229.143C361.962 229.593 361.293 229.683 360.714 229.376C360.364 229.191 360.058 228.865 359.793 228.408C355.233 229.604 351.325 230.878 349.451 231.959V231.957ZM452.009 229.835C455.409 235.122 457.197 236.737 457.922 237.224C457.761 235.755 456.057 231.88 452.8 229.427C452.773 229.407 452.747 229.387 452.721 229.368C452.329 229.577 452.119 229.731 452.009 229.835ZM480.351 224.433C480.268 224.559 480.191 224.685 480.118 224.813C479.103 226.604 479.206 228.644 480.439 231.011C480.84 229.068 481.129 226.257 480.351 224.433ZM401.233 221.575C401.238 225.058 401.323 227.363 401.429 228.882C401.497 228.567 401.57 228.216 401.647 227.828C402.479 223.6 402.114 222.21 401.663 221.791C401.555 221.689 401.409 221.619 401.235 221.575H401.233ZM360.672 219.146C360.481 222.534 360.723 224.736 361.029 226.05C361.198 226.008 361.372 225.964 361.544 225.922C361.639 224.5 361.487 222.237 360.672 219.146ZM361.179 214.274C362.92 218.893 363.612 222.759 363.55 225.441C371.416 223.608 379.865 222.228 383.337 222.4C385.484 222.508 387.497 222.34 389.362 222.038C389.179 221.537 389.074 220.836 388.944 219.978C388.708 218.414 388.409 215.926 388.056 212.584C388.01 212.145 388.056 211.568 388.398 210.959C382.366 210.721 365.717 210.707 361.758 213.619C361.452 213.844 361.258 214.064 361.181 214.276L361.179 214.274ZM391.687 210.762C391.661 211.629 391.665 213.107 391.67 214.656C391.674 216.374 391.681 218.152 391.648 219.554C391.63 220.333 391.604 220.911 391.564 221.328C391.555 221.412 391.546 221.511 391.533 221.619C393.006 221.292 394.372 220.911 395.62 220.562C397.223 220.115 398.619 219.726 399.804 219.587C400.141 219.393 400.623 219.248 401.24 219.06C402.14 218.787 403.393 218.449 404.765 218.105C406.826 217.591 411.041 216.599 416.116 215.741C423.156 214.55 429.06 214.064 433.664 214.298C434.516 214.342 435.322 214.411 436.08 214.506C436.062 214.433 436.053 214.356 436.053 214.278C436.053 211.856 435.624 211.459 435.078 210.959C434.69 210.601 434.221 210.171 433.836 209.331C427.518 208.054 399.256 207.231 391.685 210.762H391.687ZM196.321 48.068C197.483 99.5203 233.777 140.511 304.188 169.917C302.303 151.387 296.484 138.224 286.878 130.775C286.625 130.583 286.48 130.281 286.484 129.966V105.123H261.665C261.117 105.123 260.674 104.679 260.674 104.13V78.7845C260.674 78.2353 261.117 77.792 261.665 77.792H286.484V52.9338C286.484 52.3845 286.927 51.9412 287.475 51.9412H312.778C313.327 51.9412 313.769 52.3845 313.769 52.9338V77.792H338.586C339.134 77.792 339.577 78.2353 339.577 78.7845V104.13C339.577 104.679 339.134 105.123 338.586 105.123H313.769V129.983C313.769 130.532 313.327 130.976 312.778 130.976H291.053C305.606 140.328 310.953 153.174 306.972 169.227C340.596 147.435 365.497 125.94 381.008 105.312C396.732 84.4025 403.224 63.8167 400.304 44.1264C392.128 21.3702 380.552 7.78312 365.895 3.74449C356.898 1.26529 346.487 2.30858 334.953 6.84791C323.313 11.4269 310.217 19.6873 296.032 31.3951C295.799 31.587 295.488 31.6642 295.193 31.6003C294.898 31.5363 294.647 31.34 294.513 31.0687C284.41 10.4829 261.593 -1.15657 239.029 2.76737C216.487 6.68689 198.93 25.3118 196.316 48.0746L196.321 48.068ZM295.035 136.327C297.129 139.13 298.948 142.317 300.476 145.871C302.9 151.504 304.649 158.183 305.692 165.782C307.837 153.844 304.325 144.12 295.035 136.327ZM288.468 128.988H311.79V104.128C311.79 103.579 312.232 103.135 312.781 103.135H337.597V79.7749H312.781C312.232 79.7749 311.79 79.3316 311.79 78.7823V53.9241H288.468V78.7823C288.468 79.3316 288.026 79.7749 287.477 79.7749H262.658V103.135H287.477C288.026 103.135 288.468 103.579 288.468 104.128V128.988Z" fill="black"/>
</svg>
