<?xml version="1.0" encoding="utf-8"?>
<!-- Generator: Adobe Illustrator 26.5.0, SVG Export Plug-In . SVG Version: 6.00 Build 0)  -->
<svg version="1.1" id="Layer_1" xmlns="http://www.w3.org/2000/svg" xmlns:xlink="http://www.w3.org/1999/xlink" x="0px" y="0px"
	 viewBox="0 0 288.05 288.05" style="enable-background:new 0 0 288.05 288.05;" xml:space="preserve">
<style type="text/css">
	.st0{fill:#FFFFFF;}
	.st1{fill:#F58220;}
	.st2{fill:#F26522;}
	.st3{fill:#F47920;}
	.st4{fill:#0F4E95;}
	.st5{fill:#00A2E0;}
	.st6{fill:#20367C;}
	.st7{fill:#005B9D;}
	.st8{fill:#1B449C;}
</style>
<g>
	<path class="st0" d="M144.22,286.4c78.54,0,142.2-63.66,142.2-142.2S222.76,2,144.22,2S2.02,65.67,2.02,144.2
		S65.69,286.4,144.22,286.4"/>
</g>
<rect x="141.64" y="117.66" class="st1" width="18.8" height="75.02"/>
<rect x="160.44" y="192.67" class="st1" width="28" height="16.4"/>
<polygon class="st2" points="160.44,192.67 141.64,192.67 141.64,209.07 160.43,209.07 160.44,209.07 160.44,209.07 160.44,192.67 
	"/>
<rect x="191.93" y="117.66" class="st1" width="18.8" height="75.02"/>
<rect x="210.73" y="192.67" class="st1" width="28" height="16.4"/>
<polygon class="st2" points="210.73,192.67 191.93,192.67 191.93,209.07 210.72,209.07 210.73,209.07 210.73,209.07 210.73,192.67 
	"/>
<polygon class="st1" points="50.63,209.12 71.2,209.12 76.82,196.9 56.6,196.9 "/>
<polygon class="st2" points="63.62,182.52 56.6,196.9 76.82,196.9 83.42,182.52 "/>
<polygon class="st1" points="132.97,196.9 113.15,196.9 118.28,209.12 138.44,209.12 "/>
<polygon class="st2" points="126.54,182.52 107.12,182.52 113.15,196.9 132.97,196.9 "/>
<polygon class="st1" points="126.54,182.52 105.35,135.16 95.8,155.64 107.12,182.52 83.42,182.52 95.8,155.64 86.97,134.69 
	63.62,182.52 83.42,182.52 76.82,196.9 113.15,196.9 107.12,182.52 "/>
<polygon class="st2" points="105.35,135.16 96.45,115.28 86.97,134.69 95.8,155.64 "/>
<rect x="126.22" y="78.32" class="st1" width="8.48" height="4.51"/>
<rect x="126.22" y="88.02" class="st1" width="7.13" height="4.51"/>
<path class="st3" d="M121.03,78.32h5.18H121.03z"/>
<polygon class="st1" points="121.03,82.82 121.03,103.58 126.22,103.58 126.22,92.53 121.03,92.53 121.03,88.02 126.22,88.02 
	126.22,82.82 "/>
<rect x="121.03" y="78.32" class="st2" width="5.18" height="4.51"/>
<rect x="121.03" y="88.02" class="st2" width="5.18" height="4.51"/>
<rect x="162.98" y="93.54" class="st1" width="5.2" height="10.06"/>
<rect x="162.98" y="82.89" class="st1" width="5.2" height="6.34"/>
<g>
	<path class="st1" d="M174.82,78.92c-1.64-0.58-3.39-0.6-3.39-0.6l-3.25,0v4.56h2.97c1.35,0,2.25,0.55,2.75,1.03
		c0.5,0.48,0.75,1.22,0.75,2.14s-0.29,1.82-1.02,2.34c-0.73,0.51-1.46,0.83-2.57,0.83h-2.87v4.32h2.56c0,0,3.51-0.05,5.13-0.94
		c1.62-0.88,4.02-3.07,4-6.66C179.85,82.34,177.46,79.86,174.82,78.92"/>
</g>
<rect x="162.98" y="89.22" class="st2" width="5.2" height="4.32"/>
<g>
	<path class="st3" d="M175.9,92.58c-0.01,0.01-0.03,0.02-0.04,0.02c-1.62,0.89-5.13,0.93-5.13,0.93h-0.05l4.25,10.05h5.62
		L175.9,92.58z"/>
</g>
<rect x="162.98" y="78.32" class="st2" width="5.2" height="4.56"/>
<rect x="113" y="78.33" class="st4" width="5.19" height="25.25"/>
<rect x="208.03" y="78.33" class="st4" width="5.19" height="25.23"/>
<polygon class="st5" points="205.72,104.21 205.72,104.2 204.64,103.27 "/>
<g>
	<path class="st6" d="M70.39,85.73l3.5-2.98c-2.64-2.98-6.31-4.87-10.25-4.87c-0.02,0-0.04,0-0.06,0v4.72c0.02,0,0.04,0,0.06,0
		C66.33,82.59,68.52,83.61,70.39,85.73"/>
	<path class="st4" d="M63.58,82.6v-4.72c-7.18,0.03-13.01,5.78-13.06,12.88h5.21C55.77,86.27,59.26,82.63,63.58,82.6"/>
	<path class="st7" d="M55.72,90.85c0-0.03,0-0.06,0-0.09h-5.21c0,0.03,0,0.06,0,0.09c0,3.77,1.63,7.17,4.23,9.54l3.23-3.77
		C56.58,95.13,55.72,93.09,55.72,90.85"/>
	<path class="st6" d="M73.84,99.01l-3.26-3.25c-1.96,2.25-4.18,3.36-6.95,3.36c-2.22,0-4.23-0.96-5.66-2.49l-3.23,3.78
		c2.34,2.13,5.46,3.44,8.89,3.44C67.57,103.83,71.23,101.97,73.84,99.01"/>
	<path class="st1" d="M135.2,90.87h5.2c0.04-4.49,3.53-8.13,7.86-8.15v-4.71C141.08,78.02,135.24,83.77,135.2,90.87"/>
	<path class="st3" d="M156.21,90.87h5.19C161.35,83.76,155.51,78,148.3,78c-0.01,0-0.02,0-0.04,0v4.71c0.01,0,0.02,0,0.04,0
		C152.64,82.71,156.16,86.36,156.21,90.87"/>
	<path class="st2" d="M161.4,90.95c0-0.03,0-0.06,0-0.08h-5.19c0,0.03,0,0.06,0,0.08c0,1.72-0.51,3.32-1.38,4.64l4.06,2.97
		C160.47,96.43,161.4,93.8,161.4,90.95"/>
	<path class="st2" d="M148.3,99.19c-4.37,0-7.9-3.7-7.9-8.24c0-0.03,0-0.06,0-0.08h-5.2c0,0.03,0,0.06,0,0.08
		c0,7.15,5.88,12.95,13.1,12.95c2.19,0,4.25-0.53,6.07-1.47l-2.2-4.29C151.02,98.8,149.7,99.19,148.3,99.19"/>
	<path class="st3" d="M158.89,98.57l-4.06-2.97c-0.69,1.05-1.6,1.92-2.67,2.54l2.2,4.29C156.16,101.5,157.71,100.17,158.89,98.57"/>
</g>
<rect x="98.41" y="78.31" class="st4" width="5.2" height="20.74"/>
<rect x="103.6" y="99.05" class="st4" width="7.74" height="4.53"/>
<polygon class="st6" points="103.6,99.05 98.41,99.05 98.41,103.58 103.6,103.58 103.6,103.58 "/>
<polygon class="st6" points="73.11,103.58 78.8,103.58 80.35,100.21 74.76,100.21 "/>
<polygon class="st8" points="76.71,96.23 74.76,100.21 80.36,100.21 82.18,96.23 "/>
<polygon class="st6" points="95.88,100.21 90.4,100.21 91.82,103.58 97.39,103.58 "/>
<polygon class="st8" points="94.1,96.23 88.73,96.23 90.4,100.21 95.88,100.21 "/>
<polygon class="st4" points="94.1,96.23 88.24,83.14 85.6,88.8 88.73,96.23 82.18,96.23 85.6,88.8 83.16,83.01 76.71,96.23 
	82.18,96.23 80.36,100.21 90.4,100.21 88.73,96.23 "/>
<polygon class="st6" points="88.24,83.14 85.78,77.64 83.16,83.01 85.6,88.8 "/>
<polygon class="st4" points="214.35,103.57 220.03,103.57 221.59,100.19 216,100.19 "/>
<polygon class="st6" points="217.94,96.21 216,100.19 221.59,100.19 223.41,96.21 "/>
<polygon class="st4" points="237.11,100.19 231.63,100.19 233.05,103.57 238.62,103.57 "/>
<polygon class="st6" points="235.33,96.21 229.96,96.21 231.63,100.19 237.11,100.19 "/>
<polygon class="st4" points="235.33,96.21 229.47,83.12 226.83,88.78 229.96,96.22 223.41,96.22 226.83,88.78 224.39,82.99 
	217.94,96.21 223.41,96.21 221.59,100.19 231.63,100.19 229.96,96.21 "/>
<polygon class="st6" points="229.47,83.12 227.01,77.63 224.39,82.99 226.83,88.78 "/>
<polygon class="st4" points="182.52,84.17 182.52,103.58 187.7,103.58 187.7,88.68 187.66,88.66 "/>
<polygon class="st6" points="182.52,77.73 182.52,84.17 187.66,88.66 187.7,88.68 187.7,82.23 "/>
<polygon class="st4" points="205.6,97.91 205.6,78.45 200.43,78.45 200.43,93.31 187.69,82.23 187.69,88.68 200.43,99.78 
	200.43,93.34 "/>
<polygon class="st6" points="205.6,97.91 200.43,93.34 200.43,99.78 205.6,104.3 "/>
<g>
	<path class="st1" d="M144.02,21.66c-67.47,0-122.36,54.89-122.36,122.36s54.89,122.36,122.36,122.36s122.36-54.89,122.36-122.36
		S211.49,21.66,144.02,21.66 M144.02,273.17c-71.21,0-129.14-57.93-129.14-129.14c0-71.21,57.93-129.14,129.14-129.14
		c71.21,0,129.14,57.93,129.14,129.14C273.17,215.23,215.23,273.17,144.02,273.17"/>
	<path class="st4" d="M144.02,6.78c-36.66,0-71.12,14.28-97.04,40.2c-25.92,25.92-40.2,60.38-40.2,97.04
		c0,36.66,14.28,71.12,40.2,97.04c25.92,25.92,60.39,40.2,97.04,40.2s71.12-14.28,97.04-40.2c25.92-25.92,40.2-60.38,40.2-97.04
		c0-36.66-14.27-71.12-40.2-97.04C215.15,21.06,180.68,6.78,144.02,6.78 M144.02,288.05c-38.47,0-74.64-14.98-101.84-42.18
		C14.98,218.66,0,182.49,0,144.02c0-38.47,14.98-74.64,42.18-101.84C69.39,14.98,105.55,0,144.02,0s74.64,14.98,101.84,42.18
		c27.2,27.2,42.18,63.37,42.18,101.84c0,38.47-14.98,74.64-42.18,101.84C218.66,273.07,182.49,288.05,144.02,288.05"/>
</g>
</svg>
