<svg width="32" height="32" viewBox="0 0 32 32" fill="none" xmlns="http://www.w3.org/2000/svg">
<circle cx="16" cy="16" r="16" fill="#BAD9ED"/>
<path d="M21.2963 20.4766L19.2424 18.8601C18.8215 18.5234 18.2152 18.5904 17.862 18.9949C17.4917 19.4158 17.2556 19.7019 17.1715 19.7696C16.5486 20.3924 15.2525 19.4836 13.8712 18.1031C12.4908 16.722 11.5983 15.4422 12.2218 14.8194C12.2889 14.7523 12.5756 14.4998 12.9965 14.1288C13.4003 13.775 13.4681 13.1693 13.1313 12.7484L11.5148 10.6945C11.2287 10.3407 10.7401 10.223 10.3363 10.3914C9.78054 10.6268 8.78747 11.4522 8.51779 11.7212C7.03607 13.22 8.88805 16.6208 12.1204 19.8702C15.3528 23.1196 18.7707 24.9718 20.2525 23.4728C20.5221 23.2032 21.3468 22.2101 21.5822 21.6543C21.7677 21.2341 21.65 20.7626 21.2962 20.4765L21.2963 20.4766Z" fill="#005186"/>
<path d="M16.2454 13.2533C15.8074 13.1521 15.3865 13.4888 15.4207 13.9439C15.4378 14.23 15.6562 14.4661 15.9258 14.5503C16.2796 14.6345 16.6164 14.8199 16.8853 15.0889C17.155 15.3585 17.3398 15.6953 17.424 16.0484C17.491 16.3345 17.7271 16.5364 18.0303 16.5535C18.4848 16.5871 18.8215 16.1661 18.7209 15.7288C18.6025 15.156 18.2993 14.6003 17.8449 14.1458C17.3904 13.6914 16.8347 13.3882 16.2454 13.2534L16.2454 13.2533Z" fill="#005186"/>
<path d="M20.69 16.7555C21.0938 16.789 21.4306 16.4359 21.397 16.0314C21.2793 14.6845 20.7065 13.3548 19.6799 12.3274C18.6526 11.3002 17.3228 10.728 15.9759 10.6103C15.5721 10.5768 15.2183 10.9135 15.2518 11.3173C15.2689 11.6369 15.5215 11.9066 15.8582 11.9401C16.919 12.0243 17.9456 12.4787 18.7375 13.287C19.5458 14.0953 19.9832 15.1218 20.0844 16.1663C20.0844 16.486 20.3534 16.7385 20.6902 16.7556L20.69 16.7555Z" fill="#005186"/>
<path d="M21.4981 10.4926C19.8987 8.90956 17.8276 8.0678 15.7231 8.00062C15.3357 7.98353 15.0161 8.32024 15.0497 8.70761C15.0668 9.04433 15.3528 9.31398 15.6896 9.33042C17.4574 9.39815 19.2087 10.1052 20.5386 11.4521C21.8855 12.799 22.5924 14.5496 22.6431 16.3011C22.6602 16.6378 22.9127 16.9239 23.2659 16.941C23.6533 16.9746 23.99 16.6549 23.9729 16.2676C23.9229 14.163 23.0811 12.092 21.4981 10.4926L21.4981 10.4926Z" fill="#005186"/>
</svg>
