<svg width="19" height="15" fill="none" xmlns="http://www.w3.org/2000/svg"><path d="M18.4 6.3 15 3.8V1.3a.8.8 0 0 0-1.6 0v1.4L9.8 0a.8.8 0 0 0-.9 0L.3 6.3c-.3.3-.4.8-.1 1.1.2.4.7.5 1 .2l1.1-.7v7.3c0 .4.4.8.8.8h12.5c.5 0 .8-.4.8-.8V7l1 .7.5.2c.3 0 .5-.2.7-.4.3-.3.2-.8-.2-1Zm-3.6 7.1H4V5.7l5.5-4 5.4 4v7.7Z" fill="#0473BD"/><path d="M8.6 6.2v1.5H7c-.4 0-.7.3-.7.8 0 .4.3.8.7.8h1.5v1.4a.8.8 0 0 0 1.6 0V9.3h1.4c.4 0 .8-.4.8-.8s-.4-.8-.8-.8h-1.4V6.3c0-.5-.4-.8-.8-.8-.5 0-.8.3-.8.7Z" fill="#0473BD"/></svg>