<svg width="17" height="15" viewBox="0 0 17 15" fill="none" xmlns="http://www.w3.org/2000/svg">
<path d="M16.2023 7.49782C16.1921 7.22974 16.0807 6.91915 15.8976 6.72433L9.89715 0.348856C9.48991 -0.0159184 8.71053 -0.166807 8.25641 0.255099C7.80814 0.671155 7.8228 1.47833 8.26813 1.89585L12.4872 6.37292H1.12508C0.503962 6.37292 0 6.87689 0 7.49801C0 8.11913 0.503962 8.62309 1.12508 8.62309H12.4872L8.26813 13.1002C7.88432 13.4854 7.81254 14.3205 8.25641 14.7409C8.69883 15.1614 9.50746 15.0266 9.89715 14.6472L15.8976 8.27169C16.1027 8.05341 16.2023 7.79668 16.2023 7.49782Z" fill="#4F4875"/>
</svg>
