<svg width="287" height="178" viewBox="0 0 287 178" fill="none" xmlns="http://www.w3.org/2000/svg">
<circle cx="143" cy="89" r="88.5" fill="#F1F7FB"/>
<path d="M286.055 56.7034C286.055 56.7034 239.459 56.6951 227.277 58.6595C215.097 60.625 206.452 56.1052 203.701 57.4808C200.95 58.8565 213.131 61.6067 231.6 58.8565C250.068 56.1052 254.784 49.622 252.623 44.5134C250.461 39.4058 242.208 35.6718 238.672 35.6718C235.136 35.6718 236.511 31.9388 236.511 28.2069C236.511 24.475 209.79 25.4556 207.629 24.4739C205.467 23.4912 208.415 21.5267 218.631 20.7409C228.848 19.9552 237.689 22.7064 237.689 24.6709C237.689 26.6353 236.903 26.4384 230.223 27.6181C223.542 28.7967 201.145 28.011 203.699 21.7237C206.253 15.4364 237.296 16.6161 238.671 22.3135C239.454 25.5598 236.706 48.6413 233.563 50.4099C230.418 52.1774 215.684 52.9642 211.362 51.3916C207.039 49.82 204.289 37.2454 202.717 32.7267C201.146 28.209 194.268 29.9765 196.823 37.0495C199.377 44.1226 207.629 46.087 208.023 46.6769C208.416 47.2667 199.377 46.087 195.251 41.1754C191.125 36.2637 191.715 26.0476 199.181 26.2435C207.856 26.6176 210.189 47.4127 209.397 48.4444C209.594 49.623 203.7 27.815 203.896 26.8333C204.092 25.8516 206.647 32.1368 204.092 32.9237C201.537 33.7084 189.16 36.0657 189.946 46.284C190.731 56.5002 200.36 54.9286 200.36 58.0728C200.36 61.217 182.285 59.4474 180.515 68.8788C178.747 78.3103 192.893 101.1 189.75 99.1355C186.606 97.1711 179.534 95.7954 177.372 95.2056C175.212 94.6157 176.783 92.0614 177.765 91.6696C178.747 91.2767 176.783 93.83 175.997 93.83C175.212 93.83 168.335 89.1142 166.959 88.3284C165.583 87.5427 166.369 86.1681 167.155 84.3985C167.941 82.631 166.763 87.1498 165.976 87.5427C165.19 87.9356 149.473 73.7905 148.293 73.0047C147.114 72.2189 146.721 72.6108 146.917 73.9864C147.114 75.362 156.938 82.0412 157.331 83.8107C157.723 85.5793 145.935 75.559 144.953 73.7905C143.97 72.0219 147.507 71.2362 147.9 70.0575C148.293 68.8788 145.935 67.3073 144.559 66.7174C143.184 66.1276 142.79 67.1103 142.79 67.8961C142.79 68.6819 146.131 71.6291 145.542 71.4331C144.952 71.2372 146.72 68.29 148.488 68.093C150.257 67.8961 172.654 85.5793 177.37 89.3122C182.086 93.0442 183.854 95.5995 184.443 96.1883C185.033 96.7782 199.768 107.978 201.93 111.317C204.091 114.657 183.068 56.8941 182.283 55.7154C181.497 54.5368 181.103 51.1967 177.764 48.8383C174.381 45.542 192.671 102.649 196.036 105.816C197.412 107.583 176.782 49.4282 175.996 47.8566C175.211 46.285 165.976 49.2312 157.332 49.4282C148.687 49.6241 128.057 46.285 122.752 53.1601C117.449 60.0372 136.309 111.12 136.309 111.12C136.309 111.12 130.219 104.047 117.449 104.243C104.677 104.439 75.4031 121.336 75.4031 121.336C75.4031 121.336 58.7026 63.1793 60.6681 62.5905C62.6326 62.0017 73.8315 55.9114 86.7989 50.0159C99.7664 44.1226 109.983 46.6758 114.894 49.2302C119.807 51.7855 137.882 112.102 137.882 112.102C137.882 112.102 152.224 104.243 167.942 104.243C183.659 104.243 195.251 107.386 195.841 107.583C196.431 107.779 200.753 111.512 200.753 111.512C200.753 111.512 176.783 108.762 166.174 109.745C155.564 110.726 143.776 112.692 142.598 113.87C141.418 115.049 201.735 112.692 201.735 112.692V113.87C201.735 115.049 142.991 115.246 142.402 115.442C141.812 115.638 135.132 114.46 133.167 113.281C131.202 112.102 77.1726 125.069 74.4213 126.838C71.6711 128.606 131.202 114.852 134.15 113.675C137.097 112.496 133.56 107.191 120.397 107.387C107.233 107.583 75.4041 123.891 73.0467 125.069C70.6894 126.249 57.9179 63.3763 57.9179 63.3763C57.9179 63.3763 54.7748 64.9478 53.0062 65.7336C51.2377 66.5204 65.3838 128.213 69.1168 128.213C72.8498 128.213 54.236 82.3486 54.236 82.3486C54.236 82.3486 25.53 95.5307 25.53 97.8735C25.53 100.216 95.8302 153.821 97.5883 152.357C99.3454 150.892 140.647 116.914 140.061 118.378C137.048 121.84 136.681 127.483 140.354 127.752C143.283 128.63 147.971 125.116 144.748 126.581C141.525 128.045 101.075 164.52 99.0254 161.299C96.9745 158.076 97.2173 153.255 96.3377 153.841C94.194 154.517 98.2761 161.263 96.4159 160.56C92.9007 159.973 25.8218 107.834 25.2361 103.733C24.6504 99.6326 26.4075 94.3594 25.5289 95.8236C24.6504 97.2888 1.50012 96.7021 1.50012 96.7021" stroke="#363435" stroke-width="1.2973" stroke-linecap="round" stroke-linejoin="round"/>
</svg>
